<?xml version="1.0" encoding="UTF-8" standalone="no"?>
<!-- Created with Inkscape (http://www.inkscape.org/) -->

<svg
   xmlns:dc="http://purl.org/dc/elements/1.1/"
   xmlns:cc="http://creativecommons.org/ns#"
   xmlns:rdf="http://www.w3.org/1999/02/22-rdf-syntax-ns#"
   xmlns:svg="http://www.w3.org/2000/svg"
   xmlns="http://www.w3.org/2000/svg"
   xmlns:sodipodi="http://sodipodi.sourceforge.net/DTD/sodipodi-0.dtd"
   xmlns:inkscape="http://www.inkscape.org/namespaces/inkscape"
   width="1440"
   height="1800"
   id="svg2"
   version="1.1"
   inkscape:version="0.48.4 r9939"
   sodipodi:docname="GT_logo_stencil.svg">
  <defs
     id="defs4" />
  <sodipodi:namedview
     id="base"
     pagecolor="#ffffff"
     bordercolor="#666666"
     borderopacity="1.0"
     inkscape:pageopacity="0.0"
     inkscape:pageshadow="2"
     inkscape:zoom="0.35"
     inkscape:cx="466.22483"
     inkscape:cy="1310.1032"
     inkscape:document-units="in"
     inkscape:current-layer="layer1"
     showgrid="false"
     units="in"
     inkscape:window-width="1280"
     inkscape:window-height="776"
     inkscape:window-x="0"
     inkscape:window-y="24"
     inkscape:window-maximized="1" />
  <metadata
     id="metadata7">
    <rdf:RDF>
      <cc:Work
         rdf:about="">
        <dc:format>image/svg+xml</dc:format>
        <dc:type
           rdf:resource="http://purl.org/dc/dcmitype/StillImage" />
        <dc:title />
      </cc:Work>
    </rdf:RDF>
  </metadata>
  <g
     inkscape:label="Layer 1"
     inkscape:groupmode="layer"
     id="layer1"
     transform="translate(0,747.64025)">
    <path
       style="fill:none;stroke:#ff0000;stroke-opacity:1"
       d="m 299.92808,-438.6927 0,-23.98296 13.2292,0 13.2292,0 0,-45.80747 0,-45.80747 -6.73218,0 -6.73218,0 -0.12295,41.13079 -0.12295,41.13079 -24.89495,0.12423 -24.89494,0.12423 0,-3.41325 c 0,-2.55061 -0.15198,-3.34701 -0.60133,-3.15116 -22.83887,9.95437 -49.30613,16.86649 -73.00111,19.0648 -7.8354,0.72693 -25.62562,0.72084 -32.95273,-0.0113 -45.43739,-4.54009 -82.946576,-25.39922 -104.845266,-58.30522 -13.69455,-20.57806 -19.72986,-45.84199 -16.4431,-68.83112 2.57654,-18.02157 10.37704,-35.46149 22.74137,-50.84389 4.02341,-5.00552 14.77696,-15.78314 20.615,-20.66116 23.739866,-19.83603 48.374656,-31.16766 77.210406,-35.51563 9.98829,-1.50607 31.17713,-1.6421 41.37131,-0.26558 20.74303,2.80092 39.26924,8.3084 57.67256,17.14494 3.8063,1.82764 6.99934,3.32297 7.09566,3.32297 0.0963,0 0.17511,-4.96447 0.17511,-11.03216 l 0,-11.03217 23.57202,0 23.57202,0 0,40.29139 0,40.29139 -22.59474,0 -22.59474,0 -5.90816,-4.45835 c -7.7514,-5.84926 -13.46508,-9.33429 -22.26427,-13.57997 -28.59239,-13.79607 -60.00262,-14.30894 -86.57611,-1.41362 -21.8023,10.58001 -36.89678,28.67526 -41.43352,49.67048 -1.17935,5.45786 -1.19487,17.21452 -0.0305,23.12428 2.65625,13.48199 9.56636,25.31797 20.01725,34.28652 12.4792,10.70916 32.08826,19.25225 49.26622,21.46383 21.95767,2.82694 42.87546,0.15985 58.11435,-7.40979 11.02369,-5.47582 19.34932,-12.72508 25.75412,-22.42454 3.77527,-5.71731 7.84092,-14.73925 7.84092,-17.39955 0,-0.88182 -0.3532,-0.94255 -5.48122,-0.94255 l -5.48121,0 -1.07614,5.87582 c -0.59188,3.23171 -1.43233,7.81845 -1.86767,10.19277 l -0.79152,4.31693 -21.27429,0.1249 -21.27429,0.12491 0,-36.69893 0,-36.69893 137.82418,0 137.82418,0 0,36.69394 0,36.69394 -21.54012,0 -21.54011,0 -1.36008,-7.79446 c -0.74805,-4.28696 -1.5773,-9.03559 -1.84278,-10.55251 l -0.4827,-2.75804 -26.16646,0 -26.16646,0 0,45.56764 0,45.56764 12.5076,0 12.5076,0 0,24.2228 0,24.22279 -56.52475,0 -56.52475,0 0,-23.98296 z"
       id="path3752"
       inkscape:connector-curvature="0" />
  </g>
</svg>
