  0
SECTION
  2
HEADER
  9
$ACADVER
  1
AC1015
  9
$ACADMAINTVER
 70
     6
  9
$DWGCODEPAGE
  3
ANSI_1252
  9
$INSBASE
 10
0.0
 20
0.0
 30
0.0
  9
$EXTMIN
 10
-110.5064981381
 20
-106.9285376305
 30
0.0
  9
$EXTMAX
 10
386.2468082391
 20
164.938318163
 30
0.0
  9
$LIMMIN
 10
0.0
 20
0.0
  9
$LIMMAX
 10
420.0
 20
297.0
  9
$ORTHOMODE
 70
     0
  9
$REGENMODE
 70
     1
  9
$FILLMODE
 70
     1
  9
$QTEXTMODE
 70
     0
  9
$MIRRTEXT
 70
     1
  9
$LTSCALE
 40
1.0
  9
$ATTMODE
 70
     1
  9
$TEXTSIZE
 40
3.5
  9
$TRACEWID
 40
1.0
  9
$TEXTSTYLE
  7
Standard
  9
$CLAYER
  8
0
  9
$CELTYPE
  6
ByLayer
  9
$CECOLOR
 62
   256
  9
$CELTSCALE
 40
1.0
  9
$DISPSILH
 70
     0
  9
$DIMSCALE
 40
1.0
  9
$DIMASZ
 40
3.556
  9
$DIMEXO
 40
1.0
  9
$DIMDLI
 40
3.75
  9
$DIMRND
 40
0.0
  9
$DIMDLE
 40
0.0
  9
$DIMEXE
 40
1.0
  9
$DIMTP
 40
0.0
  9
$DIMTM
 40
0.0
  9
$DIMTXT
 40
3.5
  9
$DIMCEN
 40
2.5
  9
$DIMTSZ
 40
0.0
  9
$DIMTOL
 70
     0
  9
$DIMLIM
 70
     0
  9
$DIMTIH
 70
     1
  9
$DIMTOH
 70
     1
  9
$DIMSE1
 70
     0
  9
$DIMSE2
 70
     0
  9
$DIMTAD
 70
     1
  9
$DIMZIN
 70
     0
  9
$DIMBLK
  1

  9
$DIMASO
 70
     1
  9
$DIMSHO
 70
     1
  9
$DIMPOST
  1

  9
$DIMAPOST
  1

  9
$DIMALT
 70
     0
  9
$DIMALTD
 70
     3
  9
$DIMALTF
 40
0.0393700787
  9
$DIMLFAC
 40
1.0
  9
$DIMTOFL
 70
     1
  9
$DIMTVP
 40
0.0
  9
$DIMTIX
 70
     0
  9
$DIMSOXD
 70
     0
  9
$DIMSAH
 70
     0
  9
$DIMBLK1
  1

  9
$DIMBLK2
  1

  9
$DIMSTYLE
  2
ISO-25
  9
$DIMCLRD
 70
     0
  9
$DIMCLRE
 70
     0
  9
$DIMCLRT
 70
     0
  9
$DIMTFAC
 40
1.0
  9
$DIMGAP
 40
1.524
  9
$DIMJUST
 70
     0
  9
$DIMSD1
 70
     0
  9
$DIMSD2
 70
     0
  9
$DIMTOLJ
 70
     0
  9
$DIMTZIN
 70
     0
  9
$DIMALTZ
 70
     0
  9
$DIMALTTZ
 70
     0
  9
$DIMUPT
 70
     0
  9
$DIMDEC
 70
     2
  9
$DIMTDEC
 70
     2
  9
$DIMALTU
 70
     2
  9
$DIMALTTD
 70
     3
  9
$DIMTXSTY
  7
Standard
  9
$DIMAUNIT
 70
     0
  9
$DIMADEC
 70
     2
  9
$DIMALTRND
 40
0.0
  9
$DIMAZIN
 70
     0
  9
$DIMDSEP
 70
    44
  9
$DIMATFIT
 70
     3
  9
$DIMFRAC
 70
     0
  9
$DIMLDRBLK
  1

  9
$DIMLUNIT
 70
     2
  9
$DIMLWD
 70
    -2
  9
$DIMLWE
 70
    -2
  9
$DIMTMOVE
 70
     0
  9
$LUNITS
 70
     2
  9
$LUPREC
 70
     2
  9
$SKETCHINC
 40
1.0
  9
$FILLETRAD
 40
10.0
  9
$AUNITS
 70
     0
  9
$AUPREC
 70
     2
  9
$MENU
  1
.
  9
$ELEVATION
 40
0.0
  9
$PELEVATION
 40
0.0
  9
$THICKNESS
 40
0.0
  9
$LIMCHECK
 70
     0
  9
$CHAMFERA
 40
0.0
  9
$CHAMFERB
 40
0.0
  9
$CHAMFERC
 40
0.0
  9
$CHAMFERD
 40
0.0
  9
$SKPOLY
 70
     0
  9
$TDCREATE
 40
2457581.685349896
  9
$TDUCREATE
 40
2457581.852016563
  9
$TDUPDATE
 40
2457581.685479537
  9
$TDUUPDATE
 40
2457581.852146204
  9
$TDINDWG
 40
0.0000000116
  9
$TDUSRTIMER
 40
0.0000000116
  9
$USRTIMER
 70
     1
  9
$ANGBASE
 50
0.0
  9
$ANGDIR
 70
     0
  9
$PDMODE
 70
     0
  9
$PDSIZE
 40
-1.0
  9
$PLINEWID
 40
0.0
  9
$SPLFRAME
 70
     0
  9
$SPLINETYPE
 70
     6
  9
$SPLINESEGS
 70
     8
  9
$HANDSEED
  5
396
  9
$SURFTAB1
 70
     6
  9
$SURFTAB2
 70
     6
  9
$SURFTYPE
 70
     6
  9
$SURFU
 70
     6
  9
$SURFV
 70
     6
  9
$UCSBASE
  2

  9
$UCSNAME
  2

  9
$UCSORG
 10
0.0
 20
0.0
 30
0.0
  9
$UCSXDIR
 10
1.0
 20
0.0
 30
0.0
  9
$UCSYDIR
 10
0.0
 20
1.0
 30
0.0
  9
$UCSORTHOREF
  2

  9
$UCSORTHOVIEW
 70
     0
  9
$UCSORGTOP
 10
0.0
 20
0.0
 30
0.0
  9
$UCSORGBOTTOM
 10
0.0
 20
0.0
 30
0.0
  9
$UCSORGLEFT
 10
0.0
 20
0.0
 30
0.0
  9
$UCSORGRIGHT
 10
0.0
 20
0.0
 30
0.0
  9
$UCSORGFRONT
 10
0.0
 20
0.0
 30
0.0
  9
$UCSORGBACK
 10
0.0
 20
0.0
 30
0.0
  9
$PUCSBASE
  2

  9
$PUCSNAME
  2

  9
$PUCSORG
 10
0.0
 20
0.0
 30
0.0
  9
$PUCSXDIR
 10
1.0
 20
0.0
 30
0.0
  9
$PUCSYDIR
 10
0.0
 20
1.0
 30
0.0
  9
$PUCSORTHOREF
  2

  9
$PUCSORTHOVIEW
 70
     0
  9
$PUCSORGTOP
 10
0.0
 20
0.0
 30
0.0
  9
$PUCSORGBOTTOM
 10
0.0
 20
0.0
 30
0.0
  9
$PUCSORGLEFT
 10
0.0
 20
0.0
 30
0.0
  9
$PUCSORGRIGHT
 10
0.0
 20
0.0
 30
0.0
  9
$PUCSORGFRONT
 10
0.0
 20
0.0
 30
0.0
  9
$PUCSORGBACK
 10
0.0
 20
0.0
 30
0.0
  9
$USERI1
 70
     0
  9
$USERI2
 70
     0
  9
$USERI3
 70
     0
  9
$USERI4
 70
     0
  9
$USERI5
 70
     0
  9
$USERR1
 40
0.0
  9
$USERR2
 40
0.0
  9
$USERR3
 40
0.0
  9
$USERR4
 40
0.0
  9
$USERR5
 40
0.0
  9
$WORLDVIEW
 70
     1
  9
$SHADEDGE
 70
     3
  9
$SHADEDIF
 70
    70
  9
$TILEMODE
 70
     1
  9
$MAXACTVP
 70
    64
  9
$PINSBASE
 10
0.0
 20
0.0
 30
0.0
  9
$PLIMCHECK
 70
     0
  9
$PEXTMIN
 10
1.0000000000E+20
 20
1.0000000000E+20
 30
1.0000000000E+20
  9
$PEXTMAX
 10
-1.0000000000E+20
 20
-1.0000000000E+20
 30
-1.0000000000E+20
  9
$PLIMMIN
 10
0.0
 20
0.0
  9
$PLIMMAX
 10
420.0
 20
297.0
  9
$UNITMODE
 70
     0
  9
$VISRETAIN
 70
     1
  9
$PLINEGEN
 70
     0
  9
$PSLTSCALE
 70
     1
  9
$TREEDEPTH
 70
  3020
  9
$CMLSTYLE
  2
Standard
  9
$CMLJUST
 70
     0
  9
$CMLSCALE
 40
20.0
  9
$PROXYGRAPHICS
 70
     1
  9
$MEASUREMENT
 70
     1
  9
$CELWEIGHT
370
    -1
  9
$ENDCAPS
280
     0
  9
$JOINSTYLE
280
     0
  9
$LWDISPLAY
290
     1
  9
$INSUNITS
 70
     4
  9
$HYPERLINKBASE
  1

  9
$STYLESHEET
  1

  9
$XEDIT
290
     1
  9
$CEPSNTYPE
380
     0
  9
$PSTYLEMODE
290
     1
  9
$FINGERPRINTGUID
  2
{152E92A4-E387-4F2F-82F6-4701BAA367D4}
  9
$VERSIONGUID
  2
{FAEB1C32-E019-11D5-929B-00C0DF256EC4}
  9
$EXTNAMES
290
     1
  9
$PSVPSCALE
 40
0.0
  9
$OLESTARTUP
290
     0
  0
ENDSEC
  0
SECTION
  2
CLASSES
  0
CLASS
  1
ACDBDICTIONARYWDFLT
  2
AcDbDictionaryWithDefault
  3
ObjectDBX Classes
 90
        0
280
     0
281
     0
  0
CLASS
  1
VISUALSTYLE
  2
AcDbVisualStyle
  3
ObjectDBX Classes
 90
     4095
280
     0
281
     0
  0
CLASS
  1
MATERIAL
  2
AcDbMaterial
  3
ObjectDBX Classes
 90
     1153
280
     0
281
     0
  0
CLASS
  1
SCALE
  2
AcDbScale
  3
ObjectDBX Classes
 90
     1153
280
     0
281
     0
  0
CLASS
  1
TABLESTYLE
  2
AcDbTableStyle
  3
ObjectDBX Classes
 90
     4095
280
     0
281
     0
  0
CLASS
  1
MLEADERSTYLE
  2
AcDbMLeaderStyle
  3
ACDB_MLEADERSTYLE_CLASS
 90
     4095
280
     0
281
     0
  0
CLASS
  1
SUN
  2
AcDbSun
  3
SCENEOE
 90
     1153
280
     0
281
     0
  0
CLASS
  1
ACDBPLACEHOLDER
  2
AcDbPlaceHolder
  3
ObjectDBX Classes
 90
        0
280
     0
281
     0
  0
CLASS
  1
LAYOUT
  2
AcDbLayout
  3
ObjectDBX Classes
 90
        0
280
     0
281
     0
  0
ENDSEC
  0
SECTION
  2
TABLES
  0
TABLE
  2
VPORT
  5
8
330
0
100
AcDbSymbolTable
 70
     1
  0
VPORT
  5
29
330
8
100
AcDbSymbolTableRecord
100
AcDbViewportTableRecord
  2
*Active
 70
     0
 10
0.0
 20
0.0
 11
1.0
 21
1.0
 12
137.8701550505
 22
29.0048902663
 13
0.0
 23
0.0
 14
10.0
 24
10.0
 15
10.0
 25
10.0
 16
0.0
 26
0.0
 36
1.0
 17
0.0
 27
0.0
 37
0.0
 40
277.3041929094
 41
1.827193333
 42
50.0
 43
0.0
 44
0.0
 50
0.0
 51
0.0
 71
     0
 72
   100
 73
     1
 74
     3
 75
     0
 76
     0
 77
     0
 78
     0
281
     0
 65
     1
110
0.0
120
0.0
130
0.0
111
1.0
121
0.0
131
0.0
112
0.0
122
1.0
132
0.0
 79
     0
146
0.0
  0
ENDTAB
  0
TABLE
  2
LTYPE
  5
5
330
0
100
AcDbSymbolTable
 70
     6
  0
LTYPE
  5
14
330
5
100
AcDbSymbolTableRecord
100
AcDbLinetypeTableRecord
  2
ByBlock
 70
     0
  3

 72
    65
 73
     0
 40
0.0
  0
LTYPE
  5
15
330
5
100
AcDbSymbolTableRecord
100
AcDbLinetypeTableRecord
  2
ByLayer
 70
     0
  3

 72
    65
 73
     0
 40
0.0
  0
LTYPE
  5
16
330
5
100
AcDbSymbolTableRecord
100
AcDbLinetypeTableRecord
  2
Continuous
 70
     0
  3
Solid line
 72
    65
 73
     0
 40
0.0
  0
LTYPE
  5
6E
330
5
100
AcDbSymbolTableRecord
100
AcDbLinetypeTableRecord
  2
HIDDEN
 70
     0
  3
Hidden __ __ __ __ __ __ __ __ __ __ __ __ __ __
 72
    65
 73
     2
 40
1.905
 49
1.27
 74
     0
 49
-0.635
 74
     0
  0
LTYPE
  5
6F
330
5
100
AcDbSymbolTableRecord
100
AcDbLinetypeTableRecord
  2
PHANTOM
 70
     0
  3
Phantom ______  __  __  ______  __  __  ______
 72
    65
 73
     6
 40
12.7
 49
6.35
 74
     0
 49
-1.27
 74
     0
 49
1.27
 74
     0
 49
-1.27
 74
     0
 49
1.27
 74
     0
 49
-1.27
 74
     0
  0
LTYPE
  5
70
330
5
100
AcDbSymbolTableRecord
100
AcDbLinetypeTableRecord
  2
CENTER
 70
     0
  3
Center ____ _ ____ _ ____ _ ____ _ ____ _ ____
 72
    65
 73
     4
 40
10.16
 49
6.35
 74
     0
 49
-1.27
 74
     0
 49
1.27
 74
     0
 49
-1.27
 74
     0
  0
LTYPE
  5
71
330
5
100
AcDbSymbolTableRecord
100
AcDbLinetypeTableRecord
  2
CENTERX2
 70
     0
  3
Center (2x) ________  __  ________  __  _____
 72
    65
 73
     4
 40
20.32
 49
12.7
 74
     0
 49
-2.54
 74
     0
 49
2.54
 74
     0
 49
-2.54
 74
     0
  0
LTYPE
  5
72
330
5
100
AcDbSymbolTableRecord
100
AcDbLinetypeTableRecord
  2
DOT2
 70
     0
  3
Dot (.5x) ........................................
 72
    65
 73
     2
 40
0.635
 49
0.0
 74
     0
 49
-0.635
 74
     0
  0
ENDTAB
  0
TABLE
  2
LAYER
  5
2
330
0
100
AcDbSymbolTable
 70
     1
  0
LAYER
  5
10
330
2
100
AcDbSymbolTableRecord
100
AcDbLayerTableRecord
  2
0
 70
     0
 62
     7
  6
Continuous
370
    -3
390
F
  0
ENDTAB
  0
TABLE
  2
STYLE
  5
3
330
0
100
AcDbSymbolTable
 70
     2
  0
STYLE
  5
11
330
3
100
AcDbSymbolTableRecord
100
AcDbTextStyleTableRecord
  2
Standard
 70
     0
 40
0.0
 41
1.0
 50
0.0
 71
     0
 42
3.5
  3
txt
  4

  0
STYLE
  5
393
330
3
100
AcDbSymbolTableRecord
100
AcDbTextStyleTableRecord
  2
SLDTEXTSTYLE0
 70
     0
 40
0.0
 41
0.7
 50
0.0
 71
     0
 42
3.5
  3
TXT
  4

  0
ENDTAB
  0
TABLE
  2
VIEW
  5
6
330
0
100
AcDbSymbolTable
 70
     0
  0
ENDTAB
  0
TABLE
  2
UCS
  5
7
330
0
100
AcDbSymbolTable
 70
     0
  0
ENDTAB
  0
TABLE
  2
APPID
  5
9
330
0
100
AcDbSymbolTable
 70
     1
  0
APPID
  5
12
330
9
100
AcDbSymbolTableRecord
100
AcDbRegAppTableRecord
  2
ACAD
 70
     0
  0
ENDTAB
  0
TABLE
  2
DIMSTYLE
  5
A
330
0
100
AcDbSymbolTable
 70
     1
100
AcDbDimStyleTable
  0
DIMSTYLE
105
27
330
A
100
AcDbSymbolTableRecord
100
AcDbDimStyleTableRecord
  2
ISO-25
 70
     0
 41
2.5
 42
0.625
 43
3.75
 44
1.25
 73
     0
 74
     0
 77
     1
 78
     8
140
2.5
141
2.5
143
0.0393700787
147
0.625
171
     3
172
     1
178
     0
271
     2
272
     2
274
     3
278
    44
283
     0
284
     8
340
11
  0
ENDTAB
  0
TABLE
  2
BLOCK_RECORD
  5
1
330
0
100
AcDbSymbolTable
 70
     1
  0
BLOCK_RECORD
  5
1F
330
1
100
AcDbSymbolTableRecord
100
AcDbBlockTableRecord
  2
*Model_Space
340
22
  0
BLOCK_RECORD
  5
1B
330
1
100
AcDbSymbolTableRecord
100
AcDbBlockTableRecord
  2
*Paper_Space
340
1E
  0
BLOCK_RECORD
  5
23
330
1
100
AcDbSymbolTableRecord
100
AcDbBlockTableRecord
  2
*Paper_Space0
340
26
  0
ENDTAB
  0
ENDSEC
  0
SECTION
  2
BLOCKS
  0
BLOCK
  5
20
330
1F
100
AcDbEntity
  8
0
100
AcDbBlockBegin
  2
*Model_Space
 70
     0
 10
0.0
 20
0.0
 30
0.0
  3
*Model_Space
  1

  0
ENDBLK
  5
21
330
1F
100
AcDbEntity
  8
0
100
AcDbBlockEnd
  0
BLOCK
  5
1C
330
1B
100
AcDbEntity
 67
     1
  8
0
100
AcDbBlockBegin
  2
*Paper_Space
 70
     0
 10
0.0
 20
0.0
 30
0.0
  3
*Paper_Space
  1

  0
ENDBLK
  5
1D
330
1B
100
AcDbEntity
 67
     1
  8
0
100
AcDbBlockEnd
  0
BLOCK
  5
24
330
23
100
AcDbEntity
  8
0
100
AcDbBlockBegin
  2
*Paper_Space0
 70
     0
 10
0.0
 20
0.0
 30
0.0
  3
*Paper_Space0
  1

  0
ENDBLK
  5
25
330
23
100
AcDbEntity
  8
0
100
AcDbBlockEnd
  0
ENDSEC
  0
SECTION
  2
ENTITIES
  0
CIRCLE
  5
A3
330
1F
100
AcDbEntity
  8
0
  6
Continuous
 62
     7
370
    15
100
AcDbCircle
 10
-44.0208941691
 20
-1.5725656286
 30
0.0
 40
0.9999999999999929
  0
CIRCLE
  5
A4
330
1F
100
AcDbEntity
  8
0
  6
Continuous
 62
     7
370
    15
100
AcDbCircle
 10
-39.5968561933
 20
-1.7510926388
 30
0.0
 40
1.000000000000007
  0
CIRCLE
  5
A5
330
1F
100
AcDbEntity
  8
0
  6
Continuous
 62
     7
370
    15
100
AcDbCircle
 10
-35.1336809381
 20
-1.7510926388
 30
0.0
 40
1.000000000000014
  0
CIRCLE
  5
A6
330
1F
100
AcDbEntity
  8
0
  6
Continuous
 62
     7
370
    15
100
AcDbCircle
 10
-44.0208941691
 20
-13.5220514106
 30
0.0
 40
0.9999999999999929
  0
CIRCLE
  5
A7
330
1F
100
AcDbEntity
  8
0
  6
Continuous
 62
     7
370
    15
100
AcDbCircle
 10
-39.5968561933
 20
-13.7005784208
 30
0.0
 40
1.0
  0
CIRCLE
  5
A8
330
1F
100
AcDbEntity
  8
0
  6
Continuous
 62
     7
370
    15
100
AcDbCircle
 10
-35.1336809381
 20
-13.7005784208
 30
0.0
 40
1.000000000000007
  0
CIRCLE
  5
A9
330
1F
100
AcDbEntity
  8
0
  6
Continuous
 62
     7
370
    15
100
AcDbCircle
 10
-43.9491433711
 20
-17.3965945065
 30
0.0
 40
1.000000000000014
  0
CIRCLE
  5
AA
330
1F
100
AcDbEntity
  8
0
  6
Continuous
 62
     7
370
    15
100
AcDbCircle
 10
-39.5251053952
 20
-17.5751215167
 30
0.0
 40
1.0
  0
CIRCLE
  5
AB
330
1F
100
AcDbEntity
  8
0
  6
Continuous
 62
     7
370
    15
100
AcDbCircle
 10
-35.06193014
 20
-17.5751215167
 30
0.0
 40
1.0
  0
CIRCLE
  5
AC
330
1F
100
AcDbEntity
  8
0
  6
Continuous
 62
     7
370
    15
100
AcDbCircle
 10
-44.0208941691
 20
-21.4863899966
 30
0.0
 40
0.9999999999999929
  0
CIRCLE
  5
AD
330
1F
100
AcDbEntity
  8
0
  6
Continuous
 62
     7
370
    15
100
AcDbCircle
 10
-39.5968561933
 20
-21.6649170068
 30
0.0
 40
1.000000000000007
  0
CIRCLE
  5
AE
330
1F
100
AcDbEntity
  8
0
  6
Continuous
 62
     7
370
    15
100
AcDbCircle
 10
-35.1336809381
 20
-21.6649170068
 30
0.0
 40
1.0
  0
CIRCLE
  5
AF
330
1F
100
AcDbEntity
  8
0
  6
Continuous
 62
     7
370
    15
100
AcDbCircle
 10
-43.9491433711
 20
-25.3609330925
 30
0.0
 40
1.000000000000007
  0
CIRCLE
  5
B0
330
1F
100
AcDbEntity
  8
0
  6
Continuous
 62
     7
370
    15
100
AcDbCircle
 10
-39.5251053952
 20
-25.5394601027
 30
0.0
 40
1.0
  0
CIRCLE
  5
B1
330
1F
100
AcDbEntity
  8
0
  6
Continuous
 62
     7
370
    15
100
AcDbCircle
 10
-35.06193014
 20
-25.5394601027
 30
0.0
 40
0.9999999999999929
  0
CIRCLE
  5
B2
330
1F
100
AcDbEntity
  8
0
  6
Continuous
 62
     7
370
    15
100
AcDbCircle
 10
-35.2054317361
 20
9.6473234303
 30
0.0
 40
0.9999999999999929
  0
CIRCLE
  5
B3
330
1F
100
AcDbEntity
  8
0
  6
Continuous
 62
     7
370
    15
100
AcDbCircle
 10
-39.5968561933
 20
5.7727803344
 30
0.0
 40
1.000000000000007
  0
CIRCLE
  5
B4
330
1F
100
AcDbEntity
  8
0
  6
Continuous
 62
     7
370
    15
100
AcDbCircle
 10
-35.1336809381
 20
5.7727803344
 30
0.0
 40
1.000000000000014
  0
CIRCLE
  5
B5
330
1F
100
AcDbEntity
  8
0
  6
Continuous
 62
     7
370
    15
100
AcDbCircle
 10
-44.0208941691
 20
1.8615118545
 30
0.0
 40
0.9999999999999929
  0
CIRCLE
  5
B6
330
1F
100
AcDbEntity
  8
0
  6
Continuous
 62
     7
370
    15
100
AcDbCircle
 10
-39.5968561933
 20
1.6829848442
 30
0.0
 40
1.000000000000007
  0
CIRCLE
  5
B7
330
1F
100
AcDbEntity
  8
0
  6
Continuous
 62
     7
370
    15
100
AcDbCircle
 10
-35.1336809381
 20
1.6829848442
 30
0.0
 40
1.000000000000014
  0
CIRCLE
  5
B8
330
1F
100
AcDbEntity
  8
0
  6
Continuous
 62
     7
370
    15
100
AcDbCircle
 10
-43.9491433711
 20
-5.4471087245
 30
0.0
 40
1.000000000000014
  0
CIRCLE
  5
B9
330
1F
100
AcDbEntity
  8
0
  6
Continuous
 62
     7
370
    15
100
AcDbCircle
 10
-39.5251053952
 20
-5.6256357347
 30
0.0
 40
1.0
  0
CIRCLE
  5
BA
330
1F
100
AcDbEntity
  8
0
  6
Continuous
 62
     7
370
    15
100
AcDbCircle
 10
-35.06193014
 20
-5.6256357347
 30
0.0
 40
0.9999999999999929
  0
CIRCLE
  5
BB
330
1F
100
AcDbEntity
  8
0
  6
Continuous
 62
     7
370
    15
100
AcDbCircle
 10
-44.0208941691
 20
-9.5369042147
 30
0.0
 40
0.9999999999999929
  0
CIRCLE
  5
BC
330
1F
100
AcDbEntity
  8
0
  6
Continuous
 62
     7
370
    15
100
AcDbCircle
 10
-39.5968561933
 20
-9.7154312249
 30
0.0
 40
1.000000000000007
  0
CIRCLE
  5
BD
330
1F
100
AcDbEntity
  8
0
  6
Continuous
 62
     7
370
    15
100
AcDbCircle
 10
-35.1336809381
 20
-9.7154312249
 30
0.0
 40
1.0
  0
CIRCLE
  5
BE
330
1F
100
AcDbEntity
  8
0
  6
Continuous
 62
     7
370
    15
100
AcDbCircle
 10
-43.9491433711
 20
-29.0873193113
 30
0.0
 40
1.000000000000014
  0
CIRCLE
  5
BF
330
1F
100
AcDbEntity
  8
0
  6
Continuous
 62
     7
370
    15
100
AcDbCircle
 10
-39.5251053952
 20
-29.2658463215
 30
0.0
 40
1.0
  0
CIRCLE
  5
C0
330
1F
100
AcDbEntity
  8
0
  6
Continuous
 62
     7
370
    15
100
AcDbCircle
 10
-35.06193014
 20
-29.2658463215
 30
0.0
 40
1.0
  0
SPLINE
  5
D4
330
1F
100
AcDbEntity
  8
0
  6
Continuous
 62
     7
370
    15
100
AcDbSpline
210
0.0
220
0.0
230
1.0
 70
     8
 71
     3
 72
    38
 73
    34
 74
     0
 42
0.000000001
 43
0.00000001
 40
0.0
 40
0.0
 40
0.0
 40
0.0
 40
0.0425441202569322
 40
0.0602863933645076
 40
0.0962697420139435
 40
0.1375418839941048
 40
0.1778295729822686
 40
0.2141287884328976
 40
0.2707757027181714
 40
0.3176971488101968
 40
0.3732806601784117
 40
0.4360738231127592
 40
0.4787848281222143
 40
0.5234919731950485
 40
0.5796067651581043
 40
0.6055671869767616
 40
0.6361946500452641
 40
0.6720436125542668
 40
0.7094065297265792
 40
0.7368542995839422
 40
0.7696247077435918
 40
0.7999068798346616
 40
0.8204457410896592
 40
0.8483338165911117
 40
0.8725050509466189
 40
0.8939969901069407
 40
0.9177741195366003
 40
0.9366073791698012
 40
0.953865989983963
 40
0.9717535793780326
 40
0.9902953947328186
 40
0.9968311176944278
 40
1.0
 40
1.0
 40
1.0
 40
1.0
 10
-5.324968925204482
 20
24.91645141237064
 30
0.0
 10
-5.30308667888249
 20
24.55710828514553
 30
0.0
 10
-5.307844698024006
 20
23.99024129137604
 30
0.0
 10
-5.770388787632003
 20
23.27774171406211
 30
0.0
 10
-6.343802199596182
 20
22.66726672955508
 30
0.0
 10
-7.249301258124119
 20
22.15954448579078
 30
0.0
 10
-8.23765858660172
 20
21.83997856659452
 30
0.0
 10
-9.404150450461056
 20
21.78591217699347
 30
0.0
 10
-10.63148596897748
 20
21.82629691542745
 30
0.0
 10
-11.97507709643927
 20
22.19958389234321
 30
0.0
 10
-13.31580079878206
 20
22.77515771076937
 30
0.0
 10
-14.34587139966614
 20
23.77297817858736
 30
0.0
 10
-15.04491064379115
 20
24.90595627622106
 30
0.0
 10
-15.24484346040139
 20
26.16430776089243
 30
0.0
 10
-15.0967472332717
 20
27.29746821502625
 30
0.0
 10
-14.60010524160665
 20
28.15725620619703
 30
0.0
 10
-14.08260188921392
 20
28.77515514998824
 30
0.0
 10
-13.42577589784286
 20
29.41753140066008
 30
0.0
 10
-12.61593512700857
 20
29.77701092591585
 30
0.0
 10
-11.86505217766598
 20
30.1845541374329
 30
0.0
 10
-11.08782447696119
 20
30.35808424540318
 30
0.0
 10
-10.36476893499516
 20
30.47035564667407
 30
0.0
 10
-9.677251004048898
 20
30.44163640181575
 30
0.0
 10
-9.042598664044554
 20
30.40139820633642
 30
0.0
 10
-8.422069088017265
 20
30.23087943188711
 30
0.0
 10
-7.825315752891027
 20
30.11843698125978
 30
0.0
 10
-7.305685912619097
 20
29.90193172892782
 30
0.0
 10
-6.845312314987584
 20
29.65459100252327
 30
0.0
 10
-6.437430983895154
 20
29.42158680112234
 30
0.0
 10
-6.042752269274143
 20
29.15760093086419
 30
0.0
 10
-5.763062930021073
 20
28.93499266585156
 30
0.0
 10
-5.589601674614447
 20
28.71806190341033
 30
0.0
 10
-5.499567929563687
 20
28.73396199298286
 30
0.0
 10
-5.472166036507742
 20
28.7332202904448
 30
0.0
  0
SPLINE
  5
D9
330
1F
100
AcDbEntity
  8
0
  6
Continuous
 62
     7
370
    15
100
AcDbSpline
210
0.0
220
0.0
230
1.0
 70
     8
 71
     3
 72
    10
 73
     6
 74
     0
 42
0.000000001
 43
0.00000001
 40
0.0
 40
0.0
 40
0.0
 40
0.0
 40
0.3527351806818064
 40
0.5158090719183342
 40
1.0
 40
1.0
 40
1.0
 40
1.0
 10
-5.324968925204482
 20
31.92694931092924
 30
0.0
 10
-5.641357454323314
 20
32.1705261787958
 30
0.0
 10
-6.147661150994743
 20
32.46125513338141
 30
0.0
 10
-7.154099089941079
 20
32.97502243121618
 30
0.0
 10
-7.862254154497012
 20
33.1849466214284
 30
0.0
 10
-8.397455095127683
 20
33.29216037622596
 30
0.0
  0
SPLINE
  5
DA
330
1F
100
AcDbEntity
  8
0
  6
Continuous
 62
     7
370
    15
100
AcDbSpline
210
0.0
220
0.0
230
1.0
 70
     8
 71
     3
 72
    12
 73
     8
 74
     0
 42
0.000000001
 43
0.00000001
 40
0.0
 40
0.0
 40
0.0
 40
0.0
 40
0.3418744580693774
 40
0.4701850987956994
 40
0.587340575126027
 40
0.7383146658748716
 40
1.0
 40
1.0
 40
1.0
 40
1.0
 10
-8.397455095127683
 20
33.29216037622596
 30
0.0
 10
-9.604062155071535
 20
33.37615613456956
 30
0.0
 10
-11.30252194173875
 20
33.56763748831101
 30
0.0
 10
-13.37150136806112
 20
33.19079333752261
 30
0.0
 10
-14.73469835625174
 20
32.80571120609941
 30
0.0
 10
-16.43301457711652
 20
31.91535515690262
 30
0.0
 10
-17.40680063191724
 20
30.76588313113087
 30
0.0
 10
-18.05591099471673
 20
30.10945995662506
 30
0.0
  0
SPLINE
  5
DB
330
1F
100
AcDbEntity
  8
0
  6
Continuous
 62
     7
370
    15
100
AcDbSpline
210
0.0
220
0.0
230
1.0
 70
     8
 71
     3
 72
    10
 73
     6
 74
     0
 42
0.000000001
 43
0.00000001
 40
0.0
 40
0.0
 40
0.0
 40
0.0
 40
0.5061499771586907
 40
0.6711915512652691
 40
1.0
 40
1.0
 40
1.0
 40
1.0
 10
-18.05591099471673
 20
30.10945995662506
 30
0.0
 10
-18.8332069696506
 20
29.3030998862871
 30
0.0
 10
-19.51359565349789
 20
27.90729402870472
 30
0.0
 10
-19.61042841296215
 20
25.7075632329222
 30
0.0
 10
-19.48066838045179
 20
24.62013233738868
 30
0.0
 10
-19.19468738874511
 20
23.94776187319979
 30
0.0
  0
SPLINE
  5
DC
330
1F
100
AcDbEntity
  8
0
  6
Continuous
 62
     7
370
    15
100
AcDbSpline
210
0.0
220
0.0
230
1.0
 70
     8
 71
     3
 72
    14
 73
    10
 74
     0
 42
0.000000001
 43
0.00000001
 40
0.0
 40
0.0
 40
0.0
 40
0.0
 40
0.175851153957538
 40
0.301976297532499
 40
0.4115747685991065
 40
0.5303582859915137
 40
0.6656539706679319
 40
0.8185407323250433
 40
1.0
 40
1.0
 40
1.0
 40
1.0
 10
-19.19468738874511
 20
23.94776187319979
 30
0.0
 10
-18.86302175548432
 20
23.08123094060199
 30
0.0
 10
-18.09159750002601
 20
21.52338364977263
 30
0.0
 10
-16.11639491458647
 20
20.39536156593099
 30
0.0
 10
-14.38531903167295
 20
19.57545630941458
 30
0.0
 10
-12.46466282570585
 20
19.09570546290759
 30
0.0
 10
-10.25562345976877
 20
18.88728203836752
 30
0.0
 10
-7.725944866715823
 20
19.41418503610513
 30
0.0
 10
-6.119306069529457
 20
20.28960287701363
 30
0.0
 10
-5.324968925204482
 20
20.86560221463521
 30
0.0
  0
CIRCLE
  5
133
330
1F
100
AcDbEntity
  8
0
  6
Continuous
 62
     7
370
    15
100
AcDbCircle
 10
0.2727272727
 20
-89.4285376305
 30
0.0
 40
11.0
  0
CIRCLE
  5
134
330
1F
100
AcDbEntity
  8
0
  6
Continuous
 62
     7
370
    15
100
AcDbCircle
 10
-34.9901793419
 20
-79.8770034005
 30
0.0
 40
1.0
  0
CIRCLE
  5
135
330
1F
100
AcDbEntity
  8
0
  6
Continuous
 62
     7
370
    15
100
AcDbCircle
 10
-39.4533545972
 20
-79.8770034005
 30
0.0
 40
1.000000000000007
  0
CIRCLE
  5
136
330
1F
100
AcDbEntity
  8
0
  6
Continuous
 62
     7
370
    15
100
AcDbCircle
 10
-43.877392573
 20
-79.6984763903
 30
0.0
 40
1.000000000000007
  0
CIRCLE
  5
137
330
1F
100
AcDbEntity
  8
0
  6
Continuous
 62
     7
370
    15
100
AcDbCircle
 10
-34.9901793419
 20
-92.2899042014
 30
0.0
 40
0.9999999999999858
  0
CIRCLE
  5
138
330
1F
100
AcDbEntity
  8
0
  6
Continuous
 62
     7
370
    15
100
AcDbCircle
 10
-39.4533545972
 20
-92.2899042014
 30
0.0
 40
0.9999999999999929
  0
CIRCLE
  5
139
330
1F
100
AcDbEntity
  8
0
  6
Continuous
 62
     7
370
    15
100
AcDbCircle
 10
-43.877392573
 20
-92.1113771912
 30
0.0
 40
1.000000000000007
  0
CIRCLE
  5
13A
330
1F
100
AcDbEntity
  8
0
  6
Continuous
 62
     7
370
    15
100
AcDbCircle
 10
-35.06193014
 20
-87.9902815103
 30
0.0
 40
0.9999999999999787
  0
CIRCLE
  5
13B
330
1F
100
AcDbEntity
  8
0
  6
Continuous
 62
     7
370
    15
100
AcDbCircle
 10
-39.5251053952
 20
-87.9902815103
 30
0.0
 40
0.9999999999999787
  0
CIRCLE
  5
13C
330
1F
100
AcDbEntity
  8
0
  6
Continuous
 62
     7
370
    15
100
AcDbCircle
 10
-43.9491433711
 20
-87.8117545001
 30
0.0
 40
1.000000000000007
  0
CIRCLE
  5
13D
330
1F
100
AcDbEntity
  8
0
  6
Continuous
 62
     7
370
    15
100
AcDbCircle
 10
-34.9901793419
 20
-83.9004860201
 30
0.0
 40
0.9999999999999858
  0
CIRCLE
  5
13E
330
1F
100
AcDbEntity
  8
0
  6
Continuous
 62
     7
370
    15
100
AcDbCircle
 10
-39.4533545972
 20
-83.9004860201
 30
0.0
 40
0.9999999999999929
  0
CIRCLE
  5
13F
330
1F
100
AcDbEntity
  8
0
  6
Continuous
 62
     7
370
    15
100
AcDbCircle
 10
-43.877392573
 20
-83.7219590099
 30
0.0
 40
1.000000000000007
  0
CIRCLE
  5
140
330
1F
100
AcDbEntity
  8
0
  6
Continuous
 62
     7
370
    15
100
AcDbCircle
 10
-35.06193014
 20
-100.4031823111
 30
0.0
 40
1.0
  0
CIRCLE
  5
141
330
1F
100
AcDbEntity
  8
0
  6
Continuous
 62
     7
370
    15
100
AcDbCircle
 10
-39.5251053952
 20
-100.4031823111
 30
0.0
 40
1.0
  0
CIRCLE
  5
142
330
1F
100
AcDbEntity
  8
0
  6
Continuous
 62
     7
370
    15
100
AcDbCircle
 10
-43.9491433711
 20
-100.2246553009
 30
0.0
 40
1.0
  0
CIRCLE
  5
143
330
1F
100
AcDbEntity
  8
0
  6
Continuous
 62
     7
370
    15
100
AcDbCircle
 10
-34.9901793419
 20
-96.313386821
 30
0.0
 40
0.9999999999999858
  0
CIRCLE
  5
144
330
1F
100
AcDbEntity
  8
0
  6
Continuous
 62
     7
370
    15
100
AcDbCircle
 10
-39.4533545972
 20
-96.313386821
 30
0.0
 40
0.9999999999999929
  0
CIRCLE
  5
145
330
1F
100
AcDbEntity
  8
0
  6
Continuous
 62
     7
370
    15
100
AcDbCircle
 10
-43.877392573
 20
-96.1348598108
 30
0.0
 40
1.000000000000007
  0
CIRCLE
  5
161
330
1F
100
AcDbEntity
  8
0
  6
Continuous
 62
     7
370
    15
100
AcDbCircle
 10
158.5066200592
 20
6.6085664336
 30
0.0
 40
9.0
  0
CIRCLE
  5
187
330
1F
100
AcDbEntity
  8
0
  6
Continuous
 62
     7
370
    15
100
AcDbCircle
 10
-102.3505453181
 20
-21.2294239435
 30
0.0
 40
1.000000000000014
  0
CIRCLE
  5
188
330
1F
100
AcDbEntity
  8
0
  6
Continuous
 62
     7
370
    15
100
AcDbCircle
 10
-97.9265073423
 20
-21.4079509537
 30
0.0
 40
1.0
  0
CIRCLE
  5
189
330
1F
100
AcDbEntity
  8
0
  6
Continuous
 62
     7
370
    15
100
AcDbCircle
 10
-93.4633320871
 20
-21.4079509537
 30
0.0
 40
1.0
  0
CIRCLE
  5
18A
330
1F
100
AcDbEntity
  8
0
  6
Continuous
 62
     7
370
    15
100
AcDbCircle
 10
-102.4222961162
 20
-25.3192194337
 30
0.0
 40
0.9999999999999858
  0
CIRCLE
  5
18B
330
1F
100
AcDbEntity
  8
0
  6
Continuous
 62
     7
370
    15
100
AcDbCircle
 10
-97.9982581404
 20
-25.4977464439
 30
0.0
 40
0.9999999999999716
  0
CIRCLE
  5
18C
330
1F
100
AcDbEntity
  8
0
  6
Continuous
 62
     7
370
    15
100
AcDbCircle
 10
-93.5350828851
 20
-25.4977464439
 30
0.0
 40
1.0
  0
CIRCLE
  5
18D
330
1F
100
AcDbEntity
  8
0
  6
Continuous
 62
     7
370
    15
100
AcDbCircle
 10
-102.4222961162
 20
-29.3722895398
 30
0.0
 40
0.9999999999999858
  0
CIRCLE
  5
18E
330
1F
100
AcDbEntity
  8
0
  6
Continuous
 62
     7
370
    15
100
AcDbCircle
 10
-97.9265073423
 20
-29.3722895398
 30
0.0
 40
1.0
  0
CIRCLE
  5
18F
330
1F
100
AcDbEntity
  8
0
  6
Continuous
 62
     7
370
    15
100
AcDbCircle
 10
-93.4633320871
 20
-29.3722895398
 30
0.0
 40
1.0
  0
CIRCLE
  5
190
330
1F
100
AcDbEntity
  8
0
  6
Continuous
 62
     7
370
    15
100
AcDbCircle
 10
-88.9031516136
 20
-21.4079509537
 30
0.0
 40
0.9999999999999858
  0
CIRCLE
  5
191
330
1F
100
AcDbEntity
  8
0
  6
Continuous
 62
     7
370
    15
100
AcDbCircle
 10
-88.9749024117
 20
-25.4977464439
 30
0.0
 40
1.0
  0
CIRCLE
  5
192
330
1F
100
AcDbEntity
  8
0
  6
Continuous
 62
     7
370
    15
100
AcDbCircle
 10
-88.9031516136
 20
-29.3722895398
 30
0.0
 40
0.9999999999999858
  0
CIRCLE
  5
193
330
1F
100
AcDbEntity
  8
0
  6
Continuous
 62
     7
370
    15
100
AcDbCircle
 10
-84.5371146965
 20
-21.4079509537
 30
0.0
 40
1.000000000000014
  0
CIRCLE
  5
194
330
1F
100
AcDbEntity
  8
0
  6
Continuous
 62
     7
370
    15
100
AcDbCircle
 10
-84.6088654946
 20
-25.4977464439
 30
0.0
 40
0.9999999999999858
  0
CIRCLE
  5
195
330
1F
100
AcDbEntity
  8
0
  6
Continuous
 62
     7
370
    15
100
AcDbCircle
 10
-84.5371146965
 20
-29.3722895398
 30
0.0
 40
1.000000000000014
  0
CIRCLE
  5
196
330
1F
100
AcDbEntity
  8
0
  6
Continuous
 62
     7
370
    15
100
AcDbCircle
 10
-102.3505453181
 20
-9.2416027379
 30
0.0
 40
1.0
  0
CIRCLE
  5
197
330
1F
100
AcDbEntity
  8
0
  6
Continuous
 62
     7
370
    15
100
AcDbCircle
 10
-97.9265073423
 20
-9.4201297481
 30
0.0
 40
1.0
  0
CIRCLE
  5
198
330
1F
100
AcDbEntity
  8
0
  6
Continuous
 62
     7
370
    15
100
AcDbCircle
 10
-93.4633320871
 20
-9.4201297481
 30
0.0
 40
1.0
  0
CIRCLE
  5
199
330
1F
100
AcDbEntity
  8
0
  6
Continuous
 62
     7
370
    15
100
AcDbCircle
 10
-102.4222961162
 20
-13.331398228
 30
0.0
 40
0.9999999999999858
  0
CIRCLE
  5
19A
330
1F
100
AcDbEntity
  8
0
  6
Continuous
 62
     7
370
    15
100
AcDbCircle
 10
-97.9982581404
 20
-13.5099252382
 30
0.0
 40
0.9999999999999716
  0
CIRCLE
  5
19B
330
1F
100
AcDbEntity
  8
0
  6
Continuous
 62
     7
370
    15
100
AcDbCircle
 10
-93.5350828851
 20
-13.5099252382
 30
0.0
 40
1.000000000000014
  0
CIRCLE
  5
19C
330
1F
100
AcDbEntity
  8
0
  6
Continuous
 62
     7
370
    15
100
AcDbCircle
 10
-102.3505453181
 20
-17.2059413239
 30
0.0
 40
1.0
  0
CIRCLE
  5
19D
330
1F
100
AcDbEntity
  8
0
  6
Continuous
 62
     7
370
    15
100
AcDbCircle
 10
-97.9265073423
 20
-17.3844683341
 30
0.0
 40
1.0
  0
CIRCLE
  5
19E
330
1F
100
AcDbEntity
  8
0
  6
Continuous
 62
     7
370
    15
100
AcDbCircle
 10
-93.4633320871
 20
-17.3844683341
 30
0.0
 40
1.0
  0
CIRCLE
  5
19F
330
1F
100
AcDbEntity
  8
0
  6
Continuous
 62
     7
370
    15
100
AcDbCircle
 10
-88.9031516136
 20
-9.4201297481
 30
0.0
 40
0.9999999999999858
  0
CIRCLE
  5
1A0
330
1F
100
AcDbEntity
  8
0
  6
Continuous
 62
     7
370
    15
100
AcDbCircle
 10
-88.9749024117
 20
-13.5099252382
 30
0.0
 40
1.0
  0
CIRCLE
  5
1A1
330
1F
100
AcDbEntity
  8
0
  6
Continuous
 62
     7
370
    15
100
AcDbCircle
 10
-88.9031516136
 20
-17.3844683341
 30
0.0
 40
1.000000000000014
  0
CIRCLE
  5
1A2
330
1F
100
AcDbEntity
  8
0
  6
Continuous
 62
     7
370
    15
100
AcDbCircle
 10
-84.5371146965
 20
-9.4201297481
 30
0.0
 40
1.0
  0
CIRCLE
  5
1A3
330
1F
100
AcDbEntity
  8
0
  6
Continuous
 62
     7
370
    15
100
AcDbCircle
 10
-84.6088654946
 20
-13.5099252382
 30
0.0
 40
0.9999999999999858
  0
CIRCLE
  5
1A4
330
1F
100
AcDbEntity
  8
0
  6
Continuous
 62
     7
370
    15
100
AcDbCircle
 10
-84.5371146965
 20
-17.3844683341
 30
0.0
 40
1.000000000000014
  0
CIRCLE
  5
1A5
330
1F
100
AcDbEntity
  8
0
  6
Continuous
 62
     7
370
    15
100
AcDbCircle
 10
-102.4222961162
 20
-0.3118986617
 30
0.0
 40
0.9999999999999858
  0
CIRCLE
  5
1A6
330
1F
100
AcDbEntity
  8
0
  6
Continuous
 62
     7
370
    15
100
AcDbCircle
 10
-97.9982581404
 20
-0.490425672
 30
0.0
 40
0.9999999999999716
  0
CIRCLE
  5
1A7
330
1F
100
AcDbEntity
  8
0
  6
Continuous
 62
     7
370
    15
100
AcDbCircle
 10
-93.5350828851
 20
-0.490425672
 30
0.0
 40
1.000000000000014
  0
CIRCLE
  5
1A8
330
1F
100
AcDbEntity
  8
0
  6
Continuous
 62
     7
370
    15
100
AcDbCircle
 10
-102.3505453181
 20
-4.1864417577
 30
0.0
 40
1.0
  0
CIRCLE
  5
1A9
330
1F
100
AcDbEntity
  8
0
  6
Continuous
 62
     7
370
    15
100
AcDbCircle
 10
-97.9265073423
 20
-4.3649687679
 30
0.0
 40
1.0
  0
CIRCLE
  5
1AA
330
1F
100
AcDbEntity
  8
0
  6
Continuous
 62
     7
370
    15
100
AcDbCircle
 10
-93.4633320871
 20
-4.3649687679
 30
0.0
 40
1.0
  0
CIRCLE
  5
1AB
330
1F
100
AcDbEntity
  8
0
  6
Continuous
 62
     7
370
    15
100
AcDbCircle
 10
-88.9749024117
 20
-0.490425672
 30
0.0
 40
1.0
  0
CIRCLE
  5
1AC
330
1F
100
AcDbEntity
  8
0
  6
Continuous
 62
     7
370
    15
100
AcDbCircle
 10
-88.9031516136
 20
-4.3649687679
 30
0.0
 40
0.9999999999999858
  0
CIRCLE
  5
1AD
330
1F
100
AcDbEntity
  8
0
  6
Continuous
 62
     7
370
    15
100
AcDbCircle
 10
-84.6088654946
 20
-0.490425672
 30
0.0
 40
0.9999999999999858
  0
CIRCLE
  5
1AE
330
1F
100
AcDbEntity
  8
0
  6
Continuous
 62
     7
370
    15
100
AcDbCircle
 10
-84.5371146965
 20
-4.3649687679
 30
0.0
 40
1.000000000000014
  0
CIRCLE
  5
1CC
330
1F
100
AcDbEntity
  8
0
  6
Continuous
 62
     7
370
    15
100
AcDbCircle
 10
152.1702992112
 20
151.363318163
 30
0.0
 40
9.0
  0
LINE
  5
233
330
1F
100
AcDbEntity
  8
0
  6
Continuous
 62
     7
370
    15
100
AcDbLine
 10
-29.5522727273
 20
39.7235664336
 30
0.0
 11
-29.5522727273
 21
34.1535664336
 31
0.0
  0
LINE
  5
234
330
1F
100
AcDbEntity
  8
0
  6
Continuous
 62
     7
370
    15
100
AcDbLine
 10
-29.5522727273
 20
39.7235664336
 30
0.0
 11
-32.7272727273
 21
39.7235664336
 31
0.0
  0
LINE
  5
235
330
1F
100
AcDbEntity
  8
0
  6
Continuous
 62
     7
370
    15
100
AcDbLine
 10
-29.5522727273
 20
45.2935664336
 30
0.0
 11
-32.7272727273
 21
45.2935664336
 31
0.0
  0
LINE
  5
236
330
1F
100
AcDbEntity
  8
0
  6
Continuous
 62
     7
370
    15
100
AcDbLine
 10
-29.5522727273
 20
50.8635664336
 30
0.0
 11
-29.5522727273
 21
45.2935664336
 31
0.0
  0
LINE
  5
237
330
1F
100
AcDbEntity
  8
0
  6
Continuous
 62
     7
370
    15
100
AcDbLine
 10
-32.7272727273
 20
50.8635664336
 30
0.0
 11
-29.5522727273
 21
50.8635664336
 31
0.0
  0
LINE
  5
238
330
1F
100
AcDbEntity
  8
0
  6
Continuous
 62
     7
370
    15
100
AcDbLine
 10
-32.7272727273
 20
56.4335664336
 30
0.0
 11
-32.7272727273
 21
50.8635664336
 31
0.0
  0
LINE
  5
239
330
1F
100
AcDbEntity
  8
0
  6
Continuous
 62
     7
370
    15
100
AcDbLine
 10
-20.7272727273
 20
56.4335664336
 30
0.0
 11
-20.7272727273
 21
53.2585664336
 31
0.0
  0
LINE
  5
23A
330
1F
100
AcDbEntity
  8
0
  6
Continuous
 62
     7
370
    15
100
AcDbLine
 10
-20.7272727273
 20
53.2585664336
 30
0.0
 11
-8.7272727273
 21
53.2585664336
 31
0.0
  0
LINE
  5
23B
330
1F
100
AcDbEntity
  8
0
  6
Continuous
 62
     7
370
    15
100
AcDbLine
 10
-8.7272727273
 20
53.2585664336
 30
0.0
 11
-8.7272727273
 21
56.4335664336
 31
0.0
  0
LINE
  5
23C
330
1F
100
AcDbEntity
  8
0
  6
Continuous
 62
     7
370
    15
100
AcDbLine
 10
3.2727272727
 20
53.2585664336
 30
0.0
 11
3.2727272727
 21
56.4335664336
 31
0.0
  0
LINE
  5
23D
330
1F
100
AcDbEntity
  8
0
  6
Continuous
 62
     7
370
    15
100
AcDbLine
 10
3.2727272727
 20
53.2585664336
 30
0.0
 11
15.2727272727
 21
53.2585664336
 31
0.0
  0
LINE
  5
23E
330
1F
100
AcDbEntity
  8
0
  6
Continuous
 62
     7
370
    15
100
AcDbLine
 10
15.2727272727
 20
53.2585664336
 30
0.0
 11
15.2727272727
 21
56.4335664336
 31
0.0
  0
LINE
  5
23F
330
1F
100
AcDbEntity
  8
0
  6
Continuous
 62
     7
370
    15
100
AcDbLine
 10
27.2727272727
 20
56.4335664336
 30
0.0
 11
15.2727272727
 21
56.4335664336
 31
0.0
  0
LINE
  5
240
330
1F
100
AcDbEntity
  8
0
  6
Continuous
 62
     7
370
    15
100
AcDbLine
 10
27.2727272727
 20
37.4335664336
 30
0.0
 11
27.2727272727
 21
56.4335664336
 31
0.0
  0
LINE
  5
241
330
1F
100
AcDbEntity
  8
0
  6
Continuous
 62
     7
370
    15
100
AcDbLine
 10
27.2727272727
 20
37.4335664336
 30
0.0
 11
24.0977272727
 21
37.4335664336
 31
0.0
  0
LINE
  5
242
330
1F
100
AcDbEntity
  8
0
  6
Continuous
 62
     7
370
    15
100
AcDbLine
 10
24.0977272727
 20
37.4335664336
 30
0.0
 11
24.0977272727
 21
18.4335664336
 31
0.0
  0
LINE
  5
243
330
1F
100
AcDbEntity
  8
0
  6
Continuous
 62
     7
370
    15
100
AcDbLine
 10
24.0977272727
 20
18.4335664336
 30
0.0
 11
27.2727272727
 21
18.4335664336
 31
0.0
  0
LINE
  5
244
330
1F
100
AcDbEntity
  8
0
  6
Continuous
 62
     7
370
    15
100
AcDbLine
 10
27.2727272727
 20
-0.5664335664
 30
0.0
 11
27.2727272727
 21
18.4335664336
 31
0.0
  0
LINE
  5
245
330
1F
100
AcDbEntity
  8
0
  6
Continuous
 62
     7
370
    15
100
AcDbLine
 10
24.0977272727
 20
-0.5664335664
 30
0.0
 11
27.2727272727
 21
-0.5664335664
 31
0.0
  0
LINE
  5
246
330
1F
100
AcDbEntity
  8
0
  6
Continuous
 62
     7
370
    15
100
AcDbLine
 10
24.0977272727
 20
-0.5664335664
 30
0.0
 11
24.0977272727
 21
-19.5664335664
 31
0.0
  0
LINE
  5
247
330
1F
100
AcDbEntity
  8
0
  6
Continuous
 62
     7
370
    15
100
AcDbLine
 10
24.0977272727
 20
-19.5664335664
 30
0.0
 11
27.2727272727
 21
-19.5664335664
 31
0.0
  0
LINE
  5
248
330
1F
100
AcDbEntity
  8
0
  6
Continuous
 62
     7
370
    15
100
AcDbLine
 10
27.2727272727
 20
-38.5664335664
 30
0.0
 11
27.2727272727
 21
-19.5664335664
 31
0.0
  0
LINE
  5
249
330
1F
100
AcDbEntity
  8
0
  6
Continuous
 62
     7
370
    15
100
AcDbLine
 10
11.2727272727
 20
-35.3914335664
 30
0.0
 11
11.2727272727
 21
-38.5664335664
 31
0.0
  0
LINE
  5
24A
330
1F
100
AcDbEntity
  8
0
  6
Continuous
 62
     7
370
    15
100
AcDbLine
 10
-4.7272727273
 20
-35.3914335664
 30
0.0
 11
11.2727272727
 21
-35.3914335664
 31
0.0
  0
LINE
  5
24B
330
1F
100
AcDbEntity
  8
0
  6
Continuous
 62
     7
370
    15
100
AcDbLine
 10
-4.7272727273
 20
-35.3914335664
 30
0.0
 11
-4.7272727273
 21
-38.5664335664
 31
0.0
  0
LINE
  5
24C
330
1F
100
AcDbEntity
  8
0
  6
Continuous
 62
     7
370
    15
100
AcDbLine
 10
-20.7272727273
 20
-38.5664335664
 30
0.0
 11
-4.7272727273
 21
-38.5664335664
 31
0.0
  0
LINE
  5
24D
330
1F
100
AcDbEntity
  8
0
  6
Continuous
 62
     7
370
    15
100
AcDbLine
 10
-20.7272727273
 20
-35.3914335664
 30
0.0
 11
-20.7272727273
 21
-38.5664335664
 31
0.0
  0
LINE
  5
24E
330
1F
100
AcDbEntity
  8
0
  6
Continuous
 62
     7
370
    15
100
AcDbLine
 10
-36.7272727273
 20
-35.3914335664
 30
0.0
 11
-20.7272727273
 21
-35.3914335664
 31
0.0
  0
LINE
  5
24F
330
1F
100
AcDbEntity
  8
0
  6
Continuous
 62
     7
370
    15
100
AcDbLine
 10
-36.7272727273
 20
-38.5664335664
 30
0.0
 11
-36.7272727273
 21
-35.3914335664
 31
0.0
  0
LINE
  5
250
330
1F
100
AcDbEntity
  8
0
  6
Continuous
 62
     7
370
    15
100
AcDbLine
 10
-52.7272727273
 20
-38.5664335664
 30
0.0
 11
-36.7272727273
 21
-38.5664335664
 31
0.0
  0
LINE
  5
251
330
1F
100
AcDbEntity
  8
0
  6
Continuous
 62
     7
370
    15
100
AcDbLine
 10
-52.7272727273
 20
-29.1186013986
 30
0.0
 11
-52.7272727273
 21
-38.5664335664
 31
0.0
  0
LINE
  5
252
330
1F
100
AcDbEntity
  8
0
  6
Continuous
 62
     7
370
    15
100
AcDbLine
 10
-52.7272727273
 20
-29.1186013986
 30
0.0
 11
-49.5522727273
 21
-29.1186013986
 31
0.0
  0
LINE
  5
253
330
1F
100
AcDbEntity
  8
0
  6
Continuous
 62
     7
370
    15
100
AcDbLine
 10
-49.5522727273
 20
-29.1186013986
 30
0.0
 11
-49.5522727273
 21
-19.6886013986
 31
0.0
  0
LINE
  5
254
330
1F
100
AcDbEntity
  8
0
  6
Continuous
 62
     7
370
    15
100
AcDbLine
 10
-49.5522727273
 20
-19.6886013986
 30
0.0
 11
-52.7272727273
 21
-19.6886013986
 31
0.0
  0
LINE
  5
255
330
1F
100
AcDbEntity
  8
0
  6
Continuous
 62
     7
370
    15
100
AcDbLine
 10
-52.7272727273
 20
-10.2586013986
 30
0.0
 11
-52.7272727273
 21
-19.6886013986
 31
0.0
  0
LINE
  5
256
330
1F
100
AcDbEntity
  8
0
  6
Continuous
 62
     7
370
    15
100
AcDbLine
 10
-49.5522727273
 20
-10.2586013986
 30
0.0
 11
-52.7272727273
 21
-10.2586013986
 31
0.0
  0
LINE
  5
257
330
1F
100
AcDbEntity
  8
0
  6
Continuous
 62
     7
370
    15
100
AcDbLine
 10
-49.5522727273
 20
-10.2586013986
 30
0.0
 11
-49.5522727273
 21
-0.8286013986
 31
0.0
  0
LINE
  5
258
330
1F
100
AcDbEntity
  8
0
  6
Continuous
 62
     7
370
    15
100
AcDbLine
 10
-49.5522727273
 20
-0.8286013986
 30
0.0
 11
-52.7272727273
 21
-0.8286013986
 31
0.0
  0
LINE
  5
259
330
1F
100
AcDbEntity
  8
0
  6
Continuous
 62
     7
370
    15
100
AcDbLine
 10
-52.7272727273
 20
8.6013986014
 30
0.0
 11
-52.7272727273
 21
-0.8286013986
 31
0.0
  0
LINE
  5
25A
330
1F
100
AcDbEntity
  8
0
  6
Continuous
 62
     7
370
    15
100
AcDbLine
 10
-48.7361702533
 20
12.5925010753
 30
0.0
 11
-52.7272727273
 21
8.6013986014
 31
0.0
  0
LINE
  5
25B
330
1F
100
AcDbEntity
  8
0
  6
Continuous
 62
     7
370
    15
100
AcDbLine
 10
-46.4911062231
 20
10.3474370451
 30
0.0
 11
-48.7361702533
 21
12.5925010753
 31
0.0
  0
LINE
  5
25C
330
1F
100
AcDbEntity
  8
0
  6
Continuous
 62
     7
370
    15
100
AcDbLine
 10
-42.4888818416
 20
14.3496614266
 30
0.0
 11
-46.4911062231
 21
10.3474370451
 31
0.0
  0
LINE
  5
25D
330
1F
100
AcDbEntity
  8
0
  6
Continuous
 62
     7
370
    15
100
AcDbLine
 10
-42.4888818416
 20
14.3496614266
 30
0.0
 11
-44.7339458718
 21
16.5947254569
 31
0.0
  0
LINE
  5
25E
330
1F
100
AcDbEntity
  8
0
  6
Continuous
 62
     7
370
    15
100
AcDbLine
 10
-38.48665746
 20
18.3518858081
 30
0.0
 11
-40.7317214903
 21
20.5969498384
 31
0.0
  0
LINE
  5
25F
330
1F
100
AcDbEntity
  8
0
  6
Continuous
 62
     7
370
    15
100
AcDbLine
 10
-34.4844330785
 20
22.3541101896
 30
0.0
 11
-38.48665746
 21
18.3518858081
 31
0.0
  0
LINE
  5
260
330
1F
100
AcDbEntity
  8
0
  6
Continuous
 62
     7
370
    15
100
AcDbLine
 10
-36.7294971088
 20
24.5991742199
 30
0.0
 11
-34.4844330785
 21
22.3541101896
 31
0.0
  0
LINE
  5
261
330
1F
100
AcDbEntity
  8
0
  6
Continuous
 62
     7
370
    15
100
AcDbLine
 10
-32.7272727273
 20
34.1535664336
 30
0.0
 11
-32.7272727273
 21
28.6013986014
 31
0.0
  0
LINE
  5
262
330
1F
100
AcDbEntity
  8
0
  6
Continuous
 62
     7
370
    15
100
AcDbLine
 10
-29.5522727273
 20
34.1535664336
 30
0.0
 11
-32.7272727273
 21
34.1535664336
 31
0.0
  0
LINE
  5
263
330
1F
100
AcDbEntity
  8
0
  6
Continuous
 62
     7
370
    15
100
AcDbLine
 10
-5.3249689252
 20
19.8378857716
 30
0.0
 11
-2.4788999492
 21
19.8378857716
 31
0.0
  0
LINE
  5
264
330
1F
100
AcDbEntity
  8
0
  6
Continuous
 62
     7
370
    15
100
AcDbLine
 10
-2.4788999492
 20
19.8378857716
 30
0.0
 11
-2.4788999492
 21
24.9164514124
 31
0.0
  0
LINE
  5
265
330
1F
100
AcDbEntity
  8
0
  6
Continuous
 62
     7
370
    15
100
AcDbLine
 10
-2.4788999492
 20
24.9164514124
 30
0.0
 11
-1.5289524193
 21
24.9164514124
 31
0.0
  0
LINE
  5
266
330
1F
100
AcDbEntity
  8
0
  6
Continuous
 62
     7
370
    15
100
AcDbLine
 10
-1.5289524193
 20
24.9164514124
 30
0.0
 11
-1.5289524193
 21
19.162303456
 31
0.0
  0
LINE
  5
267
330
1F
100
AcDbEntity
  8
0
  6
Continuous
 62
     7
370
    15
100
AcDbLine
 10
-1.5289524193
 20
19.162303456
 30
0.0
 11
-3.2868619941
 21
19.162303456
 31
0.0
  0
LINE
  5
268
330
1F
100
AcDbEntity
  8
0
  6
Continuous
 62
     7
370
    15
100
AcDbLine
 10
-3.2868619941
 20
19.162303456
 30
0.0
 11
-3.2868619941
 21
16.3279779377
 31
0.0
  0
LINE
  5
269
330
1F
100
AcDbEntity
  8
0
  6
Continuous
 62
     7
370
    15
100
AcDbLine
 10
-3.2868619941
 20
16.3279779377
 30
0.0
 11
3.9789164322
 21
16.3279779377
 31
0.0
  0
LINE
  5
26A
330
1F
100
AcDbEntity
  8
0
  6
Continuous
 62
     7
370
    15
100
AcDbLine
 10
3.9789164322
 20
16.3279779377
 30
0.0
 11
3.9789164322
 21
19.162303456
 31
0.0
  0
LINE
  5
26B
330
1F
100
AcDbEntity
  8
0
  6
Continuous
 62
     7
370
    15
100
AcDbLine
 10
3.9789164322
 20
19.162303456
 30
0.0
 11
2.1794965918
 21
19.162303456
 31
0.0
  0
LINE
  5
26C
330
1F
100
AcDbEntity
  8
0
  6
Continuous
 62
     7
370
    15
100
AcDbLine
 10
2.1794965918
 20
19.162303456
 30
0.0
 11
2.1794965918
 21
24.9164514124
 31
0.0
  0
LINE
  5
26D
330
1F
100
AcDbEntity
  8
0
  6
Continuous
 62
     7
370
    15
100
AcDbLine
 10
2.1794965918
 20
24.9164514124
 30
0.0
 11
5.7783362725
 21
24.9164514124
 31
0.0
  0
LINE
  5
26E
330
1F
100
AcDbEntity
  8
0
  6
Continuous
 62
     7
370
    15
100
AcDbLine
 10
5.7783362725
 20
24.9164514124
 30
0.0
 11
5.7783362725
 21
23.4184572306
 31
0.0
  0
LINE
  5
26F
330
1F
100
AcDbEntity
  8
0
  6
Continuous
 62
     7
370
    15
100
AcDbLine
 10
5.7783362725
 20
23.4184572306
 30
0.0
 11
8.3241933911
 21
23.4184572306
 31
0.0
  0
LINE
  5
270
330
1F
100
AcDbEntity
  8
0
  6
Continuous
 62
     7
370
    15
100
AcDbLine
 10
8.3241933911
 20
23.4184572306
 30
0.0
 11
8.3241933911
 21
28.1104063298
 31
0.0
  0
LINE
  5
271
330
1F
100
AcDbEntity
  8
0
  6
Continuous
 62
     7
370
    15
100
AcDbLine
 10
8.3241933911
 20
28.1104063298
 30
0.0
 11
-8.4873193001
 21
28.1104063298
 31
0.0
  0
LINE
  5
272
330
1F
100
AcDbEntity
  8
0
  6
Continuous
 62
     7
370
    15
100
AcDbLine
 10
-8.4873193001
 20
28.1104063298
 30
0.0
 11
-8.4873193001
 21
23.4184572306
 31
0.0
  0
LINE
  5
273
330
1F
100
AcDbEntity
  8
0
  6
Continuous
 62
     7
370
    15
100
AcDbLine
 10
-8.4873193001
 20
23.4184572306
 30
0.0
 11
-6.0549541075
 21
23.4184572306
 31
0.0
  0
LINE
  5
274
330
1F
100
AcDbEntity
  8
0
  6
Continuous
 62
     7
370
    15
100
AcDbLine
 10
-6.0549541075
 20
23.4184572306
 30
0.0
 11
-6.0549541075
 21
24.9164514124
 31
0.0
  0
LINE
  5
275
330
1F
100
AcDbEntity
  8
0
  6
Continuous
 62
     7
370
    15
100
AcDbLine
 10
-6.0549541075
 20
24.9164514124
 30
0.0
 11
-5.3249689252
 21
24.9164514124
 31
0.0
  0
LINE
  5
276
330
1F
100
AcDbEntity
  8
0
  6
Continuous
 62
     7
370
    15
100
AcDbLine
 10
-5.4721660365
 20
28.7332202904
 30
0.0
 11
-2.540706636
 21
28.7332202904
 31
0.0
  0
LINE
  5
277
330
1F
100
AcDbEntity
  8
0
  6
Continuous
 62
     7
370
    15
100
AcDbLine
 10
-2.540706636
 20
28.7332202904
 30
0.0
 11
-2.540706636
 21
33.6239121144
 31
0.0
  0
LINE
  5
278
330
1F
100
AcDbEntity
  8
0
  6
Continuous
 62
     7
370
    15
100
AcDbLine
 10
-2.540706636
 20
33.6239121144
 30
0.0
 11
-5.3249689252
 21
33.6239121144
 31
0.0
  0
LINE
  5
279
330
1F
100
AcDbEntity
  8
0
  6
Continuous
 62
     7
370
    15
100
AcDbLine
 10
-5.3249689252
 20
33.6239121144
 30
0.0
 11
-5.3249689252
 21
31.9269493109
 31
0.0
  0
LINE
  5
27A
330
1F
100
AcDbEntity
  8
0
  6
Continuous
 62
     7
370
    15
100
AcDbLine
 10
-5.3249689252
 20
20.8656022146
 30
0.0
 11
-5.3249689252
 21
19.8378857716
 31
0.0
  0
LINE
  5
27B
330
1F
100
AcDbEntity
  8
0
  6
Continuous
 62
     7
370
    15
100
AcDbLine
 10
-40.7317214903
 20
20.5969498384
 30
0.0
 11
-44.7339458718
 21
16.5947254569
 31
0.0
  0
LINE
  5
27C
330
1F
100
AcDbEntity
  8
0
  6
Continuous
 62
     7
370
    15
100
AcDbLine
 10
11.2727272727
 20
-38.5664335664
 30
0.0
 11
27.2727272727
 21
-38.5664335664
 31
0.0
  0
LINE
  5
27D
330
1F
100
AcDbEntity
  8
0
  6
Continuous
 62
     7
370
    15
100
AcDbLine
 10
3.2727272727
 20
56.4335664336
 30
0.0
 11
-8.7272727273
 21
56.4335664336
 31
0.0
  0
LINE
  5
27E
330
1F
100
AcDbEntity
  8
0
  6
Continuous
 62
     7
370
    15
100
AcDbLine
 10
-20.7272727273
 20
56.4335664336
 30
0.0
 11
-32.7272727273
 21
56.4335664336
 31
0.0
  0
LINE
  5
27F
330
1F
100
AcDbEntity
  8
0
  6
Continuous
 62
     7
370
    15
100
AcDbLine
 10
-32.7272727273
 20
45.2935664336
 30
0.0
 11
-32.7272727273
 21
39.7235664336
 31
0.0
  0
LINE
  5
280
330
1F
100
AcDbEntity
  8
0
  6
Continuous
 62
     7
370
    15
100
AcDbLine
 10
-32.7272727273
 20
28.6013986014
 30
0.0
 11
-36.7294971088
 21
24.5991742199
 31
0.0
  0
LINE
  5
281
330
1F
100
AcDbEntity
  8
0
  6
Continuous
 62
     7
370
    15
100
AcDbLine
 10
91.5203009767
 20
-38.5664335664
 30
0.0
 11
98.5203009767
 21
-38.5664335664
 31
0.0
  0
LINE
  5
282
330
1F
100
AcDbEntity
  8
0
  6
Continuous
 62
     7
370
    15
100
AcDbLine
 10
91.5203009767
 20
-35.3914274731
 30
0.0
 11
91.5203009767
 21
-38.5664335664
 31
0.0
  0
LINE
  5
283
330
1F
100
AcDbEntity
  8
0
  6
Continuous
 62
     7
370
    15
100
AcDbLine
 10
91.5203009767
 20
-35.3914274731
 30
0.0
 11
84.5203009767
 21
-35.3914274731
 31
0.0
  0
LINE
  5
284
330
1F
100
AcDbEntity
  8
0
  6
Continuous
 62
     7
370
    15
100
AcDbLine
 10
84.5203009767
 20
-35.3914274731
 30
0.0
 11
84.5203009767
 21
-38.5664335664
 31
0.0
  0
LINE
  5
285
330
1F
100
AcDbEntity
  8
0
  6
Continuous
 62
     7
370
    15
100
AcDbLine
 10
77.5203009767
 20
-38.5664335664
 30
0.0
 11
84.5203009767
 21
-38.5664335664
 31
0.0
  0
LINE
  5
286
330
1F
100
AcDbEntity
  8
0
  6
Continuous
 62
     7
370
    15
100
AcDbLine
 10
77.5203009767
 20
-35.3914274731
 30
0.0
 11
77.5203009767
 21
-38.5664335664
 31
0.0
  0
LINE
  5
287
330
1F
100
AcDbEntity
  8
0
  6
Continuous
 62
     7
370
    15
100
AcDbLine
 10
77.5203009767
 20
-35.3914274731
 30
0.0
 11
73.6952992112
 21
-35.3914274731
 31
0.0
  0
LINE
  5
288
330
1F
100
AcDbEntity
  8
0
  6
Continuous
 62
     7
370
    15
100
AcDbLine
 10
73.6952992112
 20
-19.5664335664
 30
0.0
 11
73.6952992112
 21
-35.3914274731
 31
0.0
  0
LINE
  5
289
330
1F
100
AcDbEntity
  8
0
  6
Continuous
 62
     7
370
    15
100
AcDbLine
 10
73.6952992112
 20
-19.5664335664
 30
0.0
 11
70.5202992112
 21
-19.5664335664
 31
0.0
  0
LINE
  5
28A
330
1F
100
AcDbEntity
  8
0
  6
Continuous
 62
     7
370
    15
100
AcDbLine
 10
70.5202992112
 20
-0.5664335664
 30
0.0
 11
70.5202992112
 21
-19.5664335664
 31
0.0
  0
LINE
  5
28B
330
1F
100
AcDbEntity
  8
0
  6
Continuous
 62
     7
370
    15
100
AcDbLine
 10
70.5202992112
 20
-0.5664335664
 30
0.0
 11
73.6952992112
 21
-0.5664335664
 31
0.0
  0
LINE
  5
28C
330
1F
100
AcDbEntity
  8
0
  6
Continuous
 62
     7
370
    15
100
AcDbLine
 10
73.6952992112
 20
18.4335664336
 30
0.0
 11
73.6952992112
 21
-0.5664335664
 31
0.0
  0
LINE
  5
28D
330
1F
100
AcDbEntity
  8
0
  6
Continuous
 62
     7
370
    15
100
AcDbLine
 10
70.5202992112
 20
18.4335664336
 30
0.0
 11
73.6952992112
 21
18.4335664336
 31
0.0
  0
LINE
  5
28E
330
1F
100
AcDbEntity
  8
0
  6
Continuous
 62
     7
370
    15
100
AcDbLine
 10
70.5202992112
 20
37.4335664336
 30
0.0
 11
70.5202992112
 21
18.4335664336
 31
0.0
  0
LINE
  5
28F
330
1F
100
AcDbEntity
  8
0
  6
Continuous
 62
     7
370
    15
100
AcDbLine
 10
70.5202992112
 20
37.4335664336
 30
0.0
 11
73.6952992112
 21
37.4335664336
 31
0.0
  0
LINE
  5
290
330
1F
100
AcDbEntity
  8
0
  6
Continuous
 62
     7
370
    15
100
AcDbLine
 10
73.6952992112
 20
53.2585664336
 30
0.0
 11
73.6952992112
 21
37.4335664336
 31
0.0
  0
LINE
  5
291
330
1F
100
AcDbEntity
  8
0
  6
Continuous
 62
     7
370
    15
100
AcDbLine
 10
77.5202992112
 20
53.2585664336
 30
0.0
 11
73.6952992112
 21
53.2585664336
 31
0.0
  0
LINE
  5
292
330
1F
100
AcDbEntity
  8
0
  6
Continuous
 62
     7
370
    15
100
AcDbLine
 10
77.5202992112
 20
56.4335664336
 30
0.0
 11
77.5202992112
 21
53.2585664336
 31
0.0
  0
LINE
  5
293
330
1F
100
AcDbEntity
  8
0
  6
Continuous
 62
     7
370
    15
100
AcDbLine
 10
84.5202992112
 20
56.4335664336
 30
0.0
 11
77.5202992112
 21
56.4335664336
 31
0.0
  0
LINE
  5
294
330
1F
100
AcDbEntity
  8
0
  6
Continuous
 62
     7
370
    15
100
AcDbLine
 10
84.5202992112
 20
56.4335664336
 30
0.0
 11
84.5202992112
 21
53.2585664336
 31
0.0
  0
LINE
  5
295
330
1F
100
AcDbEntity
  8
0
  6
Continuous
 62
     7
370
    15
100
AcDbLine
 10
91.5202992112
 20
53.2585664336
 30
0.0
 11
84.5202992112
 21
53.2585664336
 31
0.0
  0
LINE
  5
296
330
1F
100
AcDbEntity
  8
0
  6
Continuous
 62
     7
370
    15
100
AcDbLine
 10
91.5202992112
 20
56.4335664336
 30
0.0
 11
91.5202992112
 21
53.2585664336
 31
0.0
  0
LINE
  5
297
330
1F
100
AcDbEntity
  8
0
  6
Continuous
 62
     7
370
    15
100
AcDbLine
 10
98.5202992112
 20
56.4335664336
 30
0.0
 11
91.5202992112
 21
56.4335664336
 31
0.0
  0
LINE
  5
298
330
1F
100
AcDbEntity
  8
0
  6
Continuous
 62
     7
370
    15
100
AcDbLine
 10
98.5202992112
 20
53.2585664336
 30
0.0
 11
98.5202992112
 21
56.4335664336
 31
0.0
  0
LINE
  5
299
330
1F
100
AcDbEntity
  8
0
  6
Continuous
 62
     7
370
    15
100
AcDbLine
 10
98.5202992112
 20
53.2585664336
 30
0.0
 11
102.3452992112
 21
53.2585664336
 31
0.0
  0
LINE
  5
29A
330
1F
100
AcDbEntity
  8
0
  6
Continuous
 62
     7
370
    15
100
AcDbLine
 10
102.3452992112
 20
53.2585664336
 30
0.0
 11
102.3452992112
 21
37.4335664336
 31
0.0
  0
LINE
  5
29B
330
1F
100
AcDbEntity
  8
0
  6
Continuous
 62
     7
370
    15
100
AcDbLine
 10
102.3452992112
 20
37.4335664336
 30
0.0
 11
105.5202992112
 21
37.4335664336
 31
0.0
  0
LINE
  5
29C
330
1F
100
AcDbEntity
  8
0
  6
Continuous
 62
     7
370
    15
100
AcDbLine
 10
105.5202992112
 20
18.4335664336
 30
0.0
 11
105.5202992112
 21
37.4335664336
 31
0.0
  0
LINE
  5
29D
330
1F
100
AcDbEntity
  8
0
  6
Continuous
 62
     7
370
    15
100
AcDbLine
 10
102.3452992112
 20
18.4335664336
 30
0.0
 11
105.5202992112
 21
18.4335664336
 31
0.0
  0
LINE
  5
29E
330
1F
100
AcDbEntity
  8
0
  6
Continuous
 62
     7
370
    15
100
AcDbLine
 10
102.3452992112
 20
18.4335664336
 30
0.0
 11
102.3452992112
 21
-0.5664335664
 31
0.0
  0
LINE
  5
29F
330
1F
100
AcDbEntity
  8
0
  6
Continuous
 62
     7
370
    15
100
AcDbLine
 10
102.3452992112
 20
-0.5664335664
 30
0.0
 11
105.5202992112
 21
-0.5664335664
 31
0.0
  0
LINE
  5
2A0
330
1F
100
AcDbEntity
  8
0
  6
Continuous
 62
     7
370
    15
100
AcDbLine
 10
105.5202992112
 20
-19.5664335664
 30
0.0
 11
105.5202992112
 21
-0.5664335664
 31
0.0
  0
LINE
  5
2A1
330
1F
100
AcDbEntity
  8
0
  6
Continuous
 62
     7
370
    15
100
AcDbLine
 10
105.5202992112
 20
-19.5664335664
 30
0.0
 11
102.3452992112
 21
-19.5664335664
 31
0.0
  0
LINE
  5
2A2
330
1F
100
AcDbEntity
  8
0
  6
Continuous
 62
     7
370
    15
100
AcDbLine
 10
102.3452992112
 20
-19.5664335664
 30
0.0
 11
102.3453009767
 21
-35.3914274731
 31
0.0
  0
LINE
  5
2A3
330
1F
100
AcDbEntity
  8
0
  6
Continuous
 62
     7
370
    15
100
AcDbLine
 10
98.5203009767
 20
-35.3914274731
 30
0.0
 11
102.3453009767
 21
-35.3914274731
 31
0.0
  0
LINE
  5
2A4
330
1F
100
AcDbEntity
  8
0
  6
Continuous
 62
     7
370
    15
100
AcDbLine
 10
98.5203009767
 20
-35.3914274731
 30
0.0
 11
98.5203009767
 21
-38.5664274731
 31
0.0
  0
LINE
  5
2A5
330
1F
100
AcDbEntity
  8
0
  6
Continuous
 62
     7
370
    15
100
AcDbLine
 10
376.3362645725
 20
79.5471311288
 30
0.0
 11
376.3362645725
 21
105.6971311288
 31
0.0
  0
LINE
  5
2A6
330
1F
100
AcDbEntity
  8
0
  6
Continuous
 62
     7
370
    15
100
AcDbLine
 10
349.3362645725
 20
105.6971311288
 30
0.0
 11
349.3362645725
 21
79.5471311288
 31
0.0
  0
LINE
  5
2A7
330
1F
100
AcDbEntity
  8
0
  6
Continuous
 62
     7
370
    15
100
AcDbLine
 10
349.3362645725
 20
79.5471311288
 30
0.0
 11
376.3362645725
 21
79.5471311288
 31
0.0
  0
LINE
  5
2A8
330
1F
100
AcDbEntity
  8
0
  6
Continuous
 62
     7
370
    15
100
AcDbLine
 10
386.2468082391
 20
78.5471311288
 30
0.0
 11
386.2468082391
 21
105.6971311288
 31
0.0
  0
LINE
  5
2A9
330
1F
100
AcDbEntity
  8
0
  6
Continuous
 62
     7
370
    15
100
AcDbLine
 10
338.9468082391
 20
78.5471311288
 30
0.0
 11
386.2468082391
 21
78.5471311288
 31
0.0
  0
LINE
  5
2AA
330
1F
100
AcDbEntity
  8
0
  6
Continuous
 62
     7
370
    15
100
AcDbLine
 10
338.9468082391
 20
105.6971311288
 30
0.0
 11
338.9468082391
 21
78.5471311288
 31
0.0
  0
LINE
  5
2AB
330
1F
100
AcDbEntity
  8
0
  6
Continuous
 62
     7
370
    15
100
AcDbLine
 10
386.2468082391
 20
105.6971311288
 30
0.0
 11
376.3362645725
 21
105.6971311288
 31
0.0
  0
LINE
  5
2AC
330
1F
100
AcDbEntity
  8
0
  6
Continuous
 62
     7
370
    15
100
AcDbLine
 10
349.3362645725
 20
105.6971311288
 30
0.0
 11
338.9468082391
 21
105.6971311288
 31
0.0
  0
LINE
  5
2AD
330
1F
100
AcDbEntity
  8
0
  6
Continuous
 62
     7
370
    15
100
AcDbLine
 10
-49.5522727273
 20
-92.9285376305
 30
0.0
 11
-52.7272727273
 21
-92.9285376305
 31
0.0
  0
LINE
  5
2AE
330
1F
100
AcDbEntity
  8
0
  6
Continuous
 62
     7
370
    15
100
AcDbLine
 10
-52.7272727273
 20
-85.9285376305
 30
0.0
 11
-52.7272727273
 21
-92.9285376305
 31
0.0
  0
LINE
  5
2AF
330
1F
100
AcDbEntity
  8
0
  6
Continuous
 62
     7
370
    15
100
AcDbLine
 10
-49.5522727273
 20
-85.9285376305
 30
0.0
 11
-52.7272727273
 21
-85.9285376305
 31
0.0
  0
LINE
  5
2B0
330
1F
100
AcDbEntity
  8
0
  6
Continuous
 62
     7
370
    15
100
AcDbLine
 10
-49.5522727273
 20
-85.9285376305
 30
0.0
 11
-49.5522727273
 21
-78.9285376305
 31
0.0
  0
LINE
  5
2B1
330
1F
100
AcDbEntity
  8
0
  6
Continuous
 62
     7
370
    15
100
AcDbLine
 10
-49.5522727273
 20
-78.9285376305
 30
0.0
 11
-52.7272727273
 21
-78.9285376305
 31
0.0
  0
LINE
  5
2B2
330
1F
100
AcDbEntity
  8
0
  6
Continuous
 62
     7
370
    15
100
AcDbLine
 10
-52.7272727273
 20
-75.1035376305
 30
0.0
 11
-52.7272727273
 21
-78.9285376305
 31
0.0
  0
LINE
  5
2B3
330
1F
100
AcDbEntity
  8
0
  6
Continuous
 62
     7
370
    15
100
AcDbLine
 10
-36.7272727273
 20
-75.1035376305
 30
0.0
 11
-52.7272727273
 21
-75.1035376305
 31
0.0
  0
LINE
  5
2B4
330
1F
100
AcDbEntity
  8
0
  6
Continuous
 62
     7
370
    15
100
AcDbLine
 10
-36.7272727273
 20
-71.9285376305
 30
0.0
 11
-36.7272727273
 21
-75.1035376305
 31
0.0
  0
LINE
  5
2B5
330
1F
100
AcDbEntity
  8
0
  6
Continuous
 62
     7
370
    15
100
AcDbLine
 10
-20.7272727273
 20
-71.9285376305
 30
0.0
 11
-36.7272727273
 21
-71.9285376305
 31
0.0
  0
LINE
  5
2B6
330
1F
100
AcDbEntity
  8
0
  6
Continuous
 62
     7
370
    15
100
AcDbLine
 10
-20.7272727273
 20
-71.9285376305
 30
0.0
 11
-20.7272727273
 21
-75.1035376305
 31
0.0
  0
LINE
  5
2B7
330
1F
100
AcDbEntity
  8
0
  6
Continuous
 62
     7
370
    15
100
AcDbLine
 10
-20.7272727273
 20
-75.1035376305
 30
0.0
 11
-4.7272727273
 21
-75.1035376305
 31
0.0
  0
LINE
  5
2B8
330
1F
100
AcDbEntity
  8
0
  6
Continuous
 62
     7
370
    15
100
AcDbLine
 10
-4.7272727273
 20
-71.9285376305
 30
0.0
 11
-4.7272727273
 21
-75.1035376305
 31
0.0
  0
LINE
  5
2B9
330
1F
100
AcDbEntity
  8
0
  6
Continuous
 62
     7
370
    15
100
AcDbLine
 10
11.2727272727
 20
-71.9285376305
 30
0.0
 11
-4.7272727273
 21
-71.9285376305
 31
0.0
  0
LINE
  5
2BA
330
1F
100
AcDbEntity
  8
0
  6
Continuous
 62
     7
370
    15
100
AcDbLine
 10
11.2727272727
 20
-71.9285376305
 30
0.0
 11
11.2727272727
 21
-75.1035376305
 31
0.0
  0
LINE
  5
2BB
330
1F
100
AcDbEntity
  8
0
  6
Continuous
 62
     7
370
    15
100
AcDbLine
 10
11.2727272727
 20
-75.1035376305
 30
0.0
 11
27.2727272727
 21
-75.1035376305
 31
0.0
  0
LINE
  5
2BC
330
1F
100
AcDbEntity
  8
0
  6
Continuous
 62
     7
370
    15
100
AcDbLine
 10
27.2727272727
 20
-78.9285376305
 30
0.0
 11
27.2727272727
 21
-75.1035376305
 31
0.0
  0
LINE
  5
2BD
330
1F
100
AcDbEntity
  8
0
  6
Continuous
 62
     7
370
    15
100
AcDbLine
 10
27.2727272727
 20
-78.9285376305
 30
0.0
 11
24.0977272727
 21
-78.9285376305
 31
0.0
  0
LINE
  5
2BE
330
1F
100
AcDbEntity
  8
0
  6
Continuous
 62
     7
370
    15
100
AcDbLine
 10
24.0977272727
 20
-85.9285376305
 30
0.0
 11
24.0977272727
 21
-78.9285376305
 31
0.0
  0
LINE
  5
2BF
330
1F
100
AcDbEntity
  8
0
  6
Continuous
 62
     7
370
    15
100
AcDbLine
 10
27.2727272727
 20
-85.9285376305
 30
0.0
 11
24.0977272727
 21
-85.9285376305
 31
0.0
  0
LINE
  5
2C0
330
1F
100
AcDbEntity
  8
0
  6
Continuous
 62
     7
370
    15
100
AcDbLine
 10
27.2727272727
 20
-92.9285376305
 30
0.0
 11
27.2727272727
 21
-85.9285376305
 31
0.0
  0
LINE
  5
2C1
330
1F
100
AcDbEntity
  8
0
  6
Continuous
 62
     7
370
    15
100
AcDbLine
 10
27.2727272727
 20
-92.9285376305
 30
0.0
 11
24.0977272727
 21
-92.9285376305
 31
0.0
  0
LINE
  5
2C2
330
1F
100
AcDbEntity
  8
0
  6
Continuous
 62
     7
370
    15
100
AcDbLine
 10
24.0977272727
 20
-99.9285376305
 30
0.0
 11
24.0977272727
 21
-92.9285376305
 31
0.0
  0
LINE
  5
2C3
330
1F
100
AcDbEntity
  8
0
  6
Continuous
 62
     7
370
    15
100
AcDbLine
 10
27.2727272727
 20
-99.9285376305
 30
0.0
 11
24.0977272727
 21
-99.9285376305
 31
0.0
  0
LINE
  5
2C4
330
1F
100
AcDbEntity
  8
0
  6
Continuous
 62
     7
370
    15
100
AcDbLine
 10
27.2727272727
 20
-103.7535376305
 30
0.0
 11
27.2727272727
 21
-99.9285376305
 31
0.0
  0
LINE
  5
2C5
330
1F
100
AcDbEntity
  8
0
  6
Continuous
 62
     7
370
    15
100
AcDbLine
 10
11.2727272727
 20
-103.7535376305
 30
0.0
 11
27.2727272727
 21
-103.7535376305
 31
0.0
  0
LINE
  5
2C6
330
1F
100
AcDbEntity
  8
0
  6
Continuous
 62
     7
370
    15
100
AcDbLine
 10
11.2727272727
 20
-103.7535376305
 30
0.0
 11
11.2727272727
 21
-106.9285376305
 31
0.0
  0
LINE
  5
2C7
330
1F
100
AcDbEntity
  8
0
  6
Continuous
 62
     7
370
    15
100
AcDbLine
 10
-4.7272727273
 20
-106.9285376305
 30
0.0
 11
11.2727272727
 21
-106.9285376305
 31
0.0
  0
LINE
  5
2C8
330
1F
100
AcDbEntity
  8
0
  6
Continuous
 62
     7
370
    15
100
AcDbLine
 10
-4.7272727273
 20
-103.7535376305
 30
0.0
 11
-4.7272727273
 21
-106.9285376305
 31
0.0
  0
LINE
  5
2C9
330
1F
100
AcDbEntity
  8
0
  6
Continuous
 62
     7
370
    15
100
AcDbLine
 10
-20.7272727273
 20
-103.7535376305
 30
0.0
 11
-4.7272727273
 21
-103.7535376305
 31
0.0
  0
LINE
  5
2CA
330
1F
100
AcDbEntity
  8
0
  6
Continuous
 62
     7
370
    15
100
AcDbLine
 10
-20.7272727273
 20
-106.9285376305
 30
0.0
 11
-20.7272727273
 21
-103.7535376305
 31
0.0
  0
LINE
  5
2CB
330
1F
100
AcDbEntity
  8
0
  6
Continuous
 62
     7
370
    15
100
AcDbLine
 10
-36.7272727273
 20
-106.9285376305
 30
0.0
 11
-20.7272727273
 21
-106.9285376305
 31
0.0
  0
LINE
  5
2CC
330
1F
100
AcDbEntity
  8
0
  6
Continuous
 62
     7
370
    15
100
AcDbLine
 10
-36.7272727273
 20
-103.7535376305
 30
0.0
 11
-36.7272727273
 21
-106.9285376305
 31
0.0
  0
LINE
  5
2CD
330
1F
100
AcDbEntity
  8
0
  6
Continuous
 62
     7
370
    15
100
AcDbLine
 10
-36.7272727273
 20
-103.7535376305
 30
0.0
 11
-52.7272727273
 21
-103.7535376305
 31
0.0
  0
LINE
  5
2CE
330
1F
100
AcDbEntity
  8
0
  6
Continuous
 62
     7
370
    15
100
AcDbLine
 10
-52.7272727273
 20
-99.9285376305
 30
0.0
 11
-49.5522727273
 21
-99.9285376305
 31
0.0
  0
LINE
  5
2CF
330
1F
100
AcDbEntity
  8
0
  6
Continuous
 62
     7
370
    15
100
AcDbLine
 10
-49.5522727273
 20
-99.9285376305
 30
0.0
 11
-49.5522727273
 21
-92.9285376305
 31
0.0
  0
LINE
  5
2D0
330
1F
100
AcDbEntity
  8
0
  6
Continuous
 62
     7
370
    15
100
AcDbLine
 10
-52.7272727273
 20
-99.9285376305
 30
0.0
 11
-52.7272727273
 21
-103.7535376305
 31
0.0
  0
LINE
  5
2D1
330
1F
100
AcDbEntity
  8
0
  6
Continuous
 62
     7
370
    15
100
AcDbLine
 10
172.831630001
 20
53.2585602207
 30
0.0
 11
172.831630001
 21
50.8635664336
 31
0.0
  0
LINE
  5
2D2
330
1F
100
AcDbEntity
  8
0
  6
Continuous
 62
     7
370
    15
100
AcDbLine
 10
172.831630001
 20
50.8635664336
 30
0.0
 11
176.006630001
 21
50.8635664336
 31
0.0
  0
LINE
  5
2D3
330
1F
100
AcDbEntity
  8
0
  6
Continuous
 62
     7
370
    15
100
AcDbLine
 10
176.006630001
 20
45.2935664336
 30
0.0
 11
176.006630001
 21
50.8635664336
 31
0.0
  0
LINE
  5
2D4
330
1F
100
AcDbEntity
  8
0
  6
Continuous
 62
     7
370
    15
100
AcDbLine
 10
176.006630001
 20
45.2935664336
 30
0.0
 11
172.831630001
 21
45.2935664336
 31
0.0
  0
LINE
  5
2D5
330
1F
100
AcDbEntity
  8
0
  6
Continuous
 62
     7
370
    15
100
AcDbLine
 10
172.831630001
 20
45.2935664336
 30
0.0
 11
172.831630001
 21
39.7235664336
 31
0.0
  0
LINE
  5
2D6
330
1F
100
AcDbEntity
  8
0
  6
Continuous
 62
     7
370
    15
100
AcDbLine
 10
176.006630001
 20
39.7235664336
 30
0.0
 11
172.831630001
 21
39.7235664336
 31
0.0
  0
LINE
  5
2D7
330
1F
100
AcDbEntity
  8
0
  6
Continuous
 62
     7
370
    15
100
AcDbLine
 10
176.006630001
 20
34.1535664336
 30
0.0
 11
176.006630001
 21
39.7235664336
 31
0.0
  0
LINE
  5
2D8
330
1F
100
AcDbEntity
  8
0
  6
Continuous
 62
     7
370
    15
100
AcDbLine
 10
176.006630001
 20
34.1535664336
 30
0.0
 11
172.831630001
 21
34.1535664336
 31
0.0
  0
LINE
  5
2D9
330
1F
100
AcDbEntity
  8
0
  6
Continuous
 62
     7
370
    15
100
AcDbLine
 10
172.831630001
 20
34.1535664336
 30
0.0
 11
172.831630001
 21
-35.3914335664
 31
0.0
  0
LINE
  5
2DA
330
1F
100
AcDbEntity
  8
0
  6
Continuous
 62
     7
370
    15
100
AcDbLine
 10
144.1816101175
 20
-35.3914335664
 30
0.0
 11
172.831630001
 21
-35.3914335664
 31
0.0
  0
LINE
  5
2DB
330
1F
100
AcDbEntity
  8
0
  6
Continuous
 62
     7
370
    15
100
AcDbLine
 10
144.1816101175
 20
34.1535602207
 30
0.0
 11
144.1816101175
 21
-35.3914335664
 31
0.0
  0
LINE
  5
2DC
330
1F
100
AcDbEntity
  8
0
  6
Continuous
 62
     7
370
    15
100
AcDbLine
 10
144.1816101175
 20
34.1535602207
 30
0.0
 11
141.006630001
 21
34.1535602207
 31
0.0
  0
LINE
  5
2DD
330
1F
100
AcDbEntity
  8
0
  6
Continuous
 62
     7
370
    15
100
AcDbLine
 10
141.006630001
 20
39.7235602207
 30
0.0
 11
141.006630001
 21
34.1535602207
 31
0.0
  0
LINE
  5
2DE
330
1F
100
AcDbEntity
  8
0
  6
Continuous
 62
     7
370
    15
100
AcDbLine
 10
144.1816101175
 20
39.7235602207
 30
0.0
 11
141.006630001
 21
39.7235602207
 31
0.0
  0
LINE
  5
2DF
330
1F
100
AcDbEntity
  8
0
  6
Continuous
 62
     7
370
    15
100
AcDbLine
 10
144.1816101175
 20
45.2935602207
 30
0.0
 11
144.1816101175
 21
39.7235602207
 31
0.0
  0
LINE
  5
2E0
330
1F
100
AcDbEntity
  8
0
  6
Continuous
 62
     7
370
    15
100
AcDbLine
 10
144.1816101175
 20
45.2935602207
 30
0.0
 11
141.006630001
 21
45.2935602207
 31
0.0
  0
LINE
  5
2E1
330
1F
100
AcDbEntity
  8
0
  6
Continuous
 62
     7
370
    15
100
AcDbLine
 10
141.006630001
 20
50.8635602207
 30
0.0
 11
141.006630001
 21
45.2935602207
 31
0.0
  0
LINE
  5
2E2
330
1F
100
AcDbEntity
  8
0
  6
Continuous
 62
     7
370
    15
100
AcDbLine
 10
141.006630001
 20
50.8635602207
 30
0.0
 11
144.1816101175
 21
50.8635602207
 31
0.0
  0
LINE
  5
2E3
330
1F
100
AcDbEntity
  8
0
  6
Continuous
 62
     7
370
    15
100
AcDbLine
 10
144.1816101175
 20
53.2585602207
 30
0.0
 11
144.1816101175
 21
50.8635602207
 31
0.0
  0
LINE
  5
2E4
330
1F
100
AcDbEntity
  8
0
  6
Continuous
 62
     7
370
    15
100
AcDbLine
 10
148.0066101175
 20
53.2585602207
 30
0.0
 11
144.1816101175
 21
53.2585602207
 31
0.0
  0
LINE
  5
2E5
330
1F
100
AcDbEntity
  8
0
  6
Continuous
 62
     7
370
    15
100
AcDbLine
 10
148.0066101175
 20
56.4335664336
 30
0.0
 11
148.0066101175
 21
53.2585602207
 31
0.0
  0
LINE
  5
2E6
330
1F
100
AcDbEntity
  8
0
  6
Continuous
 62
     7
370
    15
100
AcDbLine
 10
155.0066101175
 20
56.4335664336
 30
0.0
 11
148.0066101175
 21
56.4335664336
 31
0.0
  0
LINE
  5
2E7
330
1F
100
AcDbEntity
  8
0
  6
Continuous
 62
     7
370
    15
100
AcDbLine
 10
155.0066101175
 20
56.4335664336
 30
0.0
 11
155.0066101175
 21
53.2585602207
 31
0.0
  0
LINE
  5
2E8
330
1F
100
AcDbEntity
  8
0
  6
Continuous
 62
     7
370
    15
100
AcDbLine
 10
162.0066101175
 20
53.2585602207
 30
0.0
 11
155.0066101175
 21
53.2585602207
 31
0.0
  0
LINE
  5
2E9
330
1F
100
AcDbEntity
  8
0
  6
Continuous
 62
     7
370
    15
100
AcDbLine
 10
162.0066101175
 20
56.4335664336
 30
0.0
 11
162.0066101175
 21
53.2585602207
 31
0.0
  0
LINE
  5
2EA
330
1F
100
AcDbEntity
  8
0
  6
Continuous
 62
     7
370
    15
100
AcDbLine
 10
169.0066101175
 20
53.2585602207
 30
0.0
 11
172.831630001
 21
53.2585602207
 31
0.0
  0
LINE
  5
2EB
330
1F
100
AcDbEntity
  8
0
  6
Continuous
 62
     7
370
    15
100
AcDbLine
 10
169.0066101175
 20
56.4335664336
 30
0.0
 11
162.0066101175
 21
56.4335664336
 31
0.0
  0
LINE
  5
2EC
330
1F
100
AcDbEntity
  8
0
  6
Continuous
 62
     7
370
    15
100
AcDbLine
 10
169.0066101175
 20
56.4335602207
 30
0.0
 11
169.0066101175
 21
53.2585602207
 31
0.0
  0
LINE
  5
2ED
330
1F
100
AcDbEntity
  8
0
  6
Continuous
 62
     7
370
    15
100
AcDbLine
 10
-107.3314981381
 20
-35.3914335664
 30
0.0
 11
-107.3314981381
 21
-29.1186013986
 31
0.0
  0
LINE
  5
2EE
330
1F
100
AcDbEntity
  8
0
  6
Continuous
 62
     7
370
    15
100
AcDbLine
 10
-107.3314981381
 20
-29.1186013986
 30
0.0
 11
-110.5064981381
 21
-29.1186013986
 31
0.0
  0
LINE
  5
2EF
330
1F
100
AcDbEntity
  8
0
  6
Continuous
 62
     7
370
    15
100
AcDbLine
 10
-110.5064981381
 20
-19.6886013986
 30
0.0
 11
-110.5064981381
 21
-29.1186013986
 31
0.0
  0
LINE
  5
2F0
330
1F
100
AcDbEntity
  8
0
  6
Continuous
 62
     7
370
    15
100
AcDbLine
 10
-107.3314981381
 20
-19.6886013986
 30
0.0
 11
-110.5064981381
 21
-19.6886013986
 31
0.0
  0
LINE
  5
2F1
330
1F
100
AcDbEntity
  8
0
  6
Continuous
 62
     7
370
    15
100
AcDbLine
 10
-107.3314981381
 20
-19.6886013986
 30
0.0
 11
-107.3314981381
 21
-10.2586013986
 31
0.0
  0
LINE
  5
2F2
330
1F
100
AcDbEntity
  8
0
  6
Continuous
 62
     7
370
    15
100
AcDbLine
 10
-107.3314981381
 20
-10.2586013986
 30
0.0
 11
-110.5064981381
 21
-10.2586013986
 31
0.0
  0
LINE
  5
2F3
330
1F
100
AcDbEntity
  8
0
  6
Continuous
 62
     7
370
    15
100
AcDbLine
 10
-110.5064981381
 20
-0.8286013986
 30
0.0
 11
-110.5064981381
 21
-10.2586013986
 31
0.0
  0
LINE
  5
2F4
330
1F
100
AcDbEntity
  8
0
  6
Continuous
 62
     7
370
    15
100
AcDbLine
 10
-107.3314981381
 20
-0.8286013986
 30
0.0
 11
-110.5064981381
 21
-0.8286013986
 31
0.0
  0
LINE
  5
2F5
330
1F
100
AcDbEntity
  8
0
  6
Continuous
 62
     7
370
    15
100
AcDbLine
 10
-107.3314981381
 20
-0.8286013986
 30
0.0
 11
-107.3314981381
 21
7.4263986036
 31
0.0
  0
LINE
  5
2F6
330
1F
100
AcDbEntity
  8
0
  6
Continuous
 62
     7
370
    15
100
AcDbLine
 10
-103.5064981381
 20
7.4263986036
 30
0.0
 11
-107.3314981381
 21
7.4263986036
 31
0.0
  0
LINE
  5
2F7
330
1F
100
AcDbEntity
  8
0
  6
Continuous
 62
     7
370
    15
100
AcDbLine
 10
-103.5064981381
 20
7.4263986036
 30
0.0
 11
-103.5064981381
 21
10.6013986036
 31
0.0
  0
LINE
  5
2F8
330
1F
100
AcDbEntity
  8
0
  6
Continuous
 62
     7
370
    15
100
AcDbLine
 10
-96.5064981381
 20
10.6013986036
 30
0.0
 11
-103.5064981381
 21
10.6013986036
 31
0.0
  0
LINE
  5
2F9
330
1F
100
AcDbEntity
  8
0
  6
Continuous
 62
     7
370
    15
100
AcDbLine
 10
-96.5064981381
 20
7.4263986036
 30
0.0
 11
-96.5064981381
 21
10.6013986036
 31
0.0
  0
LINE
  5
2FA
330
1F
100
AcDbEntity
  8
0
  6
Continuous
 62
     7
370
    15
100
AcDbLine
 10
-89.5064981381
 20
7.4263986036
 30
0.0
 11
-96.5064981381
 21
7.4263986036
 31
0.0
  0
LINE
  5
2FB
330
1F
100
AcDbEntity
  8
0
  6
Continuous
 62
     7
370
    15
100
AcDbLine
 10
-89.5064981381
 20
7.4263986036
 30
0.0
 11
-89.5064981381
 21
10.6013986036
 31
0.0
  0
LINE
  5
2FC
330
1F
100
AcDbEntity
  8
0
  6
Continuous
 62
     7
370
    15
100
AcDbLine
 10
-82.5064981381
 20
10.6013986036
 30
0.0
 11
-89.5064981381
 21
10.6013986036
 31
0.0
  0
LINE
  5
2FD
330
1F
100
AcDbEntity
  8
0
  6
Continuous
 62
     7
370
    15
100
AcDbLine
 10
-82.5064981381
 20
7.4263986036
 30
0.0
 11
-82.5064981381
 21
10.6013986036
 31
0.0
  0
LINE
  5
2FE
330
1F
100
AcDbEntity
  8
0
  6
Continuous
 62
     7
370
    15
100
AcDbLine
 10
-78.6814981381
 20
7.4263986036
 30
0.0
 11
-82.5064981381
 21
7.4263986036
 31
0.0
  0
LINE
  5
2FF
330
1F
100
AcDbEntity
  8
0
  6
Continuous
 62
     7
370
    15
100
AcDbLine
 10
-78.6814981381
 20
-0.8286013986
 30
0.0
 11
-78.6814981381
 21
7.4263986036
 31
0.0
  0
LINE
  5
300
330
1F
100
AcDbEntity
  8
0
  6
Continuous
 62
     7
370
    15
100
AcDbLine
 10
-75.5064981381
 20
-0.8286013986
 30
0.0
 11
-78.6814981381
 21
-0.8286013986
 31
0.0
  0
LINE
  5
301
330
1F
100
AcDbEntity
  8
0
  6
Continuous
 62
     7
370
    15
100
AcDbLine
 10
-75.5064981381
 20
-10.2586013986
 30
0.0
 11
-75.5064981381
 21
-0.8286013986
 31
0.0
  0
LINE
  5
302
330
1F
100
AcDbEntity
  8
0
  6
Continuous
 62
     7
370
    15
100
AcDbLine
 10
-75.5064981381
 20
-10.2586013986
 30
0.0
 11
-78.6814981381
 21
-10.2586013986
 31
0.0
  0
LINE
  5
303
330
1F
100
AcDbEntity
  8
0
  6
Continuous
 62
     7
370
    15
100
AcDbLine
 10
-78.6814981381
 20
-19.6886013986
 30
0.0
 11
-78.6814981381
 21
-10.2586013986
 31
0.0
  0
LINE
  5
304
330
1F
100
AcDbEntity
  8
0
  6
Continuous
 62
     7
370
    15
100
AcDbLine
 10
-75.5064981381
 20
-19.6886013986
 30
0.0
 11
-78.6814981381
 21
-19.6886013986
 31
0.0
  0
LINE
  5
305
330
1F
100
AcDbEntity
  8
0
  6
Continuous
 62
     7
370
    15
100
AcDbLine
 10
-75.5064981381
 20
-29.1186013986
 30
0.0
 11
-75.5064981381
 21
-19.6886013986
 31
0.0
  0
LINE
  5
306
330
1F
100
AcDbEntity
  8
0
  6
Continuous
 62
     7
370
    15
100
AcDbLine
 10
-75.5064981381
 20
-29.1186013986
 30
0.0
 11
-78.6814981381
 21
-29.1186013986
 31
0.0
  0
LINE
  5
307
330
1F
100
AcDbEntity
  8
0
  6
Continuous
 62
     7
370
    15
100
AcDbLine
 10
-78.6814981381
 20
-35.3914335664
 30
0.0
 11
-78.6814981381
 21
-29.1186013986
 31
0.0
  0
LINE
  5
308
330
1F
100
AcDbEntity
  8
0
  6
Continuous
 62
     7
370
    15
100
AcDbLine
 10
-78.6814981381
 20
-35.3914335664
 30
0.0
 11
-82.5064981381
 21
-35.3914335664
 31
0.0
  0
LINE
  5
309
330
1F
100
AcDbEntity
  8
0
  6
Continuous
 62
     7
370
    15
100
AcDbLine
 10
-82.5064981381
 20
-38.5664335664
 30
0.0
 11
-82.5064981381
 21
-35.3914335664
 31
0.0
  0
LINE
  5
30A
330
1F
100
AcDbEntity
  8
0
  6
Continuous
 62
     7
370
    15
100
AcDbLine
 10
-89.5064981381
 20
-38.5664335664
 30
0.0
 11
-82.5064981381
 21
-38.5664335664
 31
0.0
  0
LINE
  5
30B
330
1F
100
AcDbEntity
  8
0
  6
Continuous
 62
     7
370
    15
100
AcDbLine
 10
-89.5064981381
 20
-38.5664335664
 30
0.0
 11
-89.5064981381
 21
-35.3914335664
 31
0.0
  0
LINE
  5
30C
330
1F
100
AcDbEntity
  8
0
  6
Continuous
 62
     7
370
    15
100
AcDbLine
 10
-89.5064981381
 20
-35.3914335664
 30
0.0
 11
-96.5064981381
 21
-35.3914335664
 31
0.0
  0
LINE
  5
30D
330
1F
100
AcDbEntity
  8
0
  6
Continuous
 62
     7
370
    15
100
AcDbLine
 10
-96.5064981381
 20
-38.5664335664
 30
0.0
 11
-96.5064981381
 21
-35.3914335664
 31
0.0
  0
LINE
  5
30E
330
1F
100
AcDbEntity
  8
0
  6
Continuous
 62
     7
370
    15
100
AcDbLine
 10
-103.5064981381
 20
-38.5664335664
 30
0.0
 11
-103.5064981381
 21
-35.3914335664
 31
0.0
  0
LINE
  5
30F
330
1F
100
AcDbEntity
  8
0
  6
Continuous
 62
     7
370
    15
100
AcDbLine
 10
-103.5064981381
 20
-35.3914335664
 30
0.0
 11
-107.3314981381
 21
-35.3914335664
 31
0.0
  0
LINE
  5
310
330
1F
100
AcDbEntity
  8
0
  6
Continuous
 62
     7
370
    15
100
AcDbLine
 10
-103.5064981381
 20
-38.5664335664
 30
0.0
 11
-96.5064981381
 21
-38.5664335664
 31
0.0
  0
LINE
  5
311
330
1F
100
AcDbEntity
  8
0
  6
Continuous
 62
     7
370
    15
100
AcDbLine
 10
-110.5064981381
 20
48.2348407826
 30
0.0
 11
-110.5064981381
 21
42.5748407826
 31
0.0
  0
LINE
  5
312
330
1F
100
AcDbEntity
  8
0
  6
Continuous
 62
     7
370
    15
100
AcDbLine
 10
-107.3314981381
 20
48.2348407826
 30
0.0
 11
-110.5064981381
 21
48.2348407826
 31
0.0
  0
LINE
  5
313
330
1F
100
AcDbEntity
  8
0
  6
Continuous
 62
     7
370
    15
100
AcDbLine
 10
-107.3314981381
 20
53.8948407826
 30
0.0
 11
-110.5064981381
 21
53.8948407826
 31
0.0
  0
LINE
  5
314
330
1F
100
AcDbEntity
  8
0
  6
Continuous
 62
     7
370
    15
100
AcDbLine
 10
-110.5064981381
 20
59.5548407826
 30
0.0
 11
-110.5064981381
 21
53.8948407826
 31
0.0
  0
LINE
  5
315
330
1F
100
AcDbEntity
  8
0
  6
Continuous
 62
     7
370
    15
100
AcDbLine
 10
-107.3314981381
 20
59.5548407826
 30
0.0
 11
-110.5064981381
 21
59.5548407826
 31
0.0
  0
LINE
  5
316
330
1F
100
AcDbEntity
  8
0
  6
Continuous
 62
     7
370
    15
100
AcDbLine
 10
-78.6814981381
 20
63.7128478109
 30
0.0
 11
-107.3314981381
 21
63.7128478109
 31
0.0
  0
LINE
  5
317
330
1F
100
AcDbEntity
  8
0
  6
Continuous
 62
     7
370
    15
100
AcDbLine
 10
-78.6814981381
 20
63.7128478109
 30
0.0
 11
-78.6814981381
 21
59.5548407826
 31
0.0
  0
LINE
  5
318
330
1F
100
AcDbEntity
  8
0
  6
Continuous
 62
     7
370
    15
100
AcDbLine
 10
-75.5064981381
 20
53.8948407826
 30
0.0
 11
-75.5064981381
 21
59.5548407826
 31
0.0
  0
LINE
  5
319
330
1F
100
AcDbEntity
  8
0
  6
Continuous
 62
     7
370
    15
100
AcDbLine
 10
-75.5064981381
 20
53.8948407826
 30
0.0
 11
-78.6814981381
 21
53.8948407826
 31
0.0
  0
LINE
  5
31A
330
1F
100
AcDbEntity
  8
0
  6
Continuous
 62
     7
370
    15
100
AcDbLine
 10
-78.6814981381
 20
53.8948407826
 30
0.0
 11
-78.6814981381
 21
48.2348407826
 31
0.0
  0
LINE
  5
31B
330
1F
100
AcDbEntity
  8
0
  6
Continuous
 62
     7
370
    15
100
AcDbLine
 10
-75.5064981381
 20
48.2348407826
 30
0.0
 11
-78.6814981381
 21
48.2348407826
 31
0.0
  0
LINE
  5
31C
330
1F
100
AcDbEntity
  8
0
  6
Continuous
 62
     7
370
    15
100
AcDbLine
 10
-75.5064981381
 20
42.5748407826
 30
0.0
 11
-75.5064981381
 21
48.2348407826
 31
0.0
  0
LINE
  5
31D
330
1F
100
AcDbEntity
  8
0
  6
Continuous
 62
     7
370
    15
100
AcDbLine
 10
-75.5064981381
 20
42.5748407826
 30
0.0
 11
-78.6814981381
 21
42.5748407826
 31
0.0
  0
LINE
  5
31E
330
1F
100
AcDbEntity
  8
0
  6
Continuous
 62
     7
370
    15
100
AcDbLine
 10
-78.6814981381
 20
42.5748407826
 30
0.0
 11
-78.6814981381
 21
36.9328478109
 31
0.0
  0
LINE
  5
31F
330
1F
100
AcDbEntity
  8
0
  6
Continuous
 62
     7
370
    15
100
AcDbLine
 10
-82.5064981381
 20
36.9328478109
 30
0.0
 11
-78.6814981381
 21
36.9328478109
 31
0.0
  0
LINE
  5
320
330
1F
100
AcDbEntity
  8
0
  6
Continuous
 62
     7
370
    15
100
AcDbLine
 10
-82.5064981381
 20
36.9328478109
 30
0.0
 11
-82.5064981381
 21
40.1078478109
 31
0.0
  0
LINE
  5
321
330
1F
100
AcDbEntity
  8
0
  6
Continuous
 62
     7
370
    15
100
AcDbLine
 10
-82.5064981381
 20
40.1078478109
 30
0.0
 11
-89.5064981381
 21
40.1078478109
 31
0.0
  0
LINE
  5
322
330
1F
100
AcDbEntity
  8
0
  6
Continuous
 62
     7
370
    15
100
AcDbLine
 10
-89.5064981381
 20
36.9328478109
 30
0.0
 11
-89.5064981381
 21
40.1078478109
 31
0.0
  0
LINE
  5
323
330
1F
100
AcDbEntity
  8
0
  6
Continuous
 62
     7
370
    15
100
AcDbLine
 10
-96.5064981381
 20
36.9328478109
 30
0.0
 11
-89.5064981381
 21
36.9328478109
 31
0.0
  0
LINE
  5
324
330
1F
100
AcDbEntity
  8
0
  6
Continuous
 62
     7
370
    15
100
AcDbLine
 10
-96.5064981381
 20
36.9328478109
 30
0.0
 11
-96.5064981381
 21
40.1078478109
 31
0.0
  0
LINE
  5
325
330
1F
100
AcDbEntity
  8
0
  6
Continuous
 62
     7
370
    15
100
AcDbLine
 10
-96.5064981381
 20
40.1078478109
 30
0.0
 11
-103.5064981381
 21
40.1078478109
 31
0.0
  0
LINE
  5
326
330
1F
100
AcDbEntity
  8
0
  6
Continuous
 62
     7
370
    15
100
AcDbLine
 10
-103.5064981381
 20
36.9328478109
 30
0.0
 11
-103.5064981381
 21
40.1078478109
 31
0.0
  0
LINE
  5
327
330
1F
100
AcDbEntity
  8
0
  6
Continuous
 62
     7
370
    15
100
AcDbLine
 10
-107.3314981381
 20
36.9328478109
 30
0.0
 11
-103.5064981381
 21
36.9328478109
 31
0.0
  0
LINE
  5
328
330
1F
100
AcDbEntity
  8
0
  6
Continuous
 62
     7
370
    15
100
AcDbLine
 10
-107.3314981381
 20
42.5748407826
 30
0.0
 11
-107.3314981381
 21
36.9328478109
 31
0.0
  0
LINE
  5
329
330
1F
100
AcDbEntity
  8
0
  6
Continuous
 62
     7
370
    15
100
AcDbLine
 10
-107.3314981381
 20
42.5748407826
 30
0.0
 11
-110.5064981381
 21
42.5748407826
 31
0.0
  0
LINE
  5
32A
330
1F
100
AcDbEntity
  8
0
  6
Continuous
 62
     7
370
    15
100
AcDbLine
 10
-107.3314981381
 20
53.8948407826
 30
0.0
 11
-107.3314981381
 21
48.2348407826
 31
0.0
  0
LINE
  5
32B
330
1F
100
AcDbEntity
  8
0
  6
Continuous
 62
     7
370
    15
100
AcDbLine
 10
-107.3314981381
 20
63.7128478109
 30
0.0
 11
-107.3314981381
 21
59.5548407826
 31
0.0
  0
LINE
  5
32C
330
1F
100
AcDbEntity
  8
0
  6
Continuous
 62
     7
370
    15
100
AcDbLine
 10
-78.6814981381
 20
59.5548407826
 30
0.0
 11
-75.5064981381
 21
59.5548407826
 31
0.0
  0
LINE
  5
32D
330
1F
100
AcDbEntity
  8
0
  6
Continuous
 62
     7
370
    15
100
AcDbLine
 10
194.1702992112
 20
164.938318163
 30
0.0
 11
105.5202992112
 21
164.938318163
 31
0.0
  0
LINE
  5
32E
330
1F
100
AcDbEntity
  8
0
  6
Continuous
 62
     7
370
    15
100
AcDbLine
 10
194.1702992112
 20
137.788318163
 30
0.0
 11
194.1702992112
 21
164.938318163
 31
0.0
  0
LINE
  5
32F
330
1F
100
AcDbEntity
  8
0
  6
Continuous
 62
     7
370
    15
100
AcDbLine
 10
105.5202992112
 20
137.788318163
 30
0.0
 11
194.1702992112
 21
137.788318163
 31
0.0
  0
LINE
  5
330
330
1F
100
AcDbEntity
  8
0
  6
Continuous
 62
     7
370
    15
100
AcDbLine
 10
105.5202992112
 20
164.938318163
 30
0.0
 11
105.5202992112
 21
137.788318163
 31
0.0
  0
LINE
  5
331
330
1F
100
AcDbEntity
  8
0
  6
Continuous
 62
     7
370
    15
100
AcDbLine
 10
239.885984237
 20
14.9379423976
 30
0.0
 11
235.8837598555
 21
10.9357180161
 31
0.0
  0
LINE
  5
332
330
1F
100
AcDbEntity
  8
0
  6
Continuous
 62
     7
370
    15
100
AcDbLine
 10
239.885984237
 20
14.9379423976
 30
0.0
 11
237.6409202068
 21
17.1830064278
 31
0.0
  0
LINE
  5
333
330
1F
100
AcDbEntity
  8
0
  6
Continuous
 62
     7
370
    15
100
AcDbLine
 10
241.6431445883
 20
21.1852308094
 30
0.0
 11
237.6409202068
 21
17.1830064278
 31
0.0
  0
LINE
  5
334
330
1F
100
AcDbEntity
  8
0
  6
Continuous
 62
     7
370
    15
100
AcDbLine
 10
243.8882086185
 20
18.9401667791
 30
0.0
 11
241.6431445883
 21
21.1852308094
 31
0.0
  0
LINE
  5
335
330
1F
100
AcDbEntity
  8
0
  6
Continuous
 62
     7
370
    15
100
AcDbLine
 10
247.8904330001
 20
22.9423911606
 30
0.0
 11
243.8882086185
 21
18.9401667791
 31
0.0
  0
LINE
  5
336
330
1F
100
AcDbEntity
  8
0
  6
Continuous
 62
     7
370
    15
100
AcDbLine
 10
245.6453689698
 20
25.1874551909
 30
0.0
 11
247.8904330001
 21
22.9423911606
 31
0.0
  0
LINE
  5
337
330
1F
100
AcDbEntity
  8
0
  6
Continuous
 62
     7
370
    15
100
AcDbLine
 10
249.6475933513
 20
29.1896795724
 30
0.0
 11
245.6453689698
 21
25.1874551909
 31
0.0
  0
LINE
  5
338
330
1F
100
AcDbEntity
  8
0
  6
Continuous
 62
     7
370
    15
100
AcDbLine
 10
249.6475933513
 20
34.7418474046
 30
0.0
 11
249.6475933513
 21
29.1896795724
 31
0.0
  0
LINE
  5
339
330
1F
100
AcDbEntity
  8
0
  6
Continuous
 62
     7
370
    15
100
AcDbLine
 10
252.8225933513
 20
34.7418474046
 30
0.0
 11
249.6475933513
 21
34.7418474046
 31
0.0
  0
LINE
  5
33A
330
1F
100
AcDbEntity
  8
0
  6
Continuous
 62
     7
370
    15
100
AcDbLine
 10
252.8225933513
 20
40.3118474046
 30
0.0
 11
252.8225933513
 21
34.7418474046
 31
0.0
  0
LINE
  5
33B
330
1F
100
AcDbEntity
  8
0
  6
Continuous
 62
     7
370
    15
100
AcDbLine
 10
252.8225933513
 20
40.3118474046
 30
0.0
 11
249.6475933513
 21
40.3118474046
 31
0.0
  0
LINE
  5
33C
330
1F
100
AcDbEntity
  8
0
  6
Continuous
 62
     7
370
    15
100
AcDbLine
 10
249.6475933513
 20
45.8818474046
 30
0.0
 11
249.6475933513
 21
40.3118474046
 31
0.0
  0
LINE
  5
33D
330
1F
100
AcDbEntity
  8
0
  6
Continuous
 62
     7
370
    15
100
AcDbLine
 10
252.8225933513
 20
45.8818474046
 30
0.0
 11
249.6475933513
 21
45.8818474046
 31
0.0
  0
LINE
  5
33E
330
1F
100
AcDbEntity
  8
0
  6
Continuous
 62
     7
370
    15
100
AcDbLine
 10
252.8225933513
 20
45.8818474046
 30
0.0
 11
252.8225933513
 21
51.4518474046
 31
0.0
  0
LINE
  5
33F
330
1F
100
AcDbEntity
  8
0
  6
Continuous
 62
     7
370
    15
100
AcDbLine
 10
252.8225933513
 20
51.4518474046
 30
0.0
 11
249.6475933513
 21
51.4518474046
 31
0.0
  0
LINE
  5
340
330
1F
100
AcDbEntity
  8
0
  6
Continuous
 62
     7
370
    15
100
AcDbLine
 10
249.6475933513
 20
57.0218474046
 30
0.0
 11
249.6475933513
 21
51.4518474046
 31
0.0
  0
LINE
  5
341
330
1F
100
AcDbEntity
  8
0
  6
Continuous
 62
     7
370
    15
100
AcDbLine
 10
261.6475933513
 20
57.0218474046
 30
0.0
 11
249.6475933513
 21
57.0218474046
 31
0.0
  0
LINE
  5
342
330
1F
100
AcDbEntity
  8
0
  6
Continuous
 62
     7
370
    15
100
AcDbLine
 10
261.6475933513
 20
57.0218474046
 30
0.0
 11
261.6475933513
 21
53.8468474046
 31
0.0
  0
LINE
  5
343
330
1F
100
AcDbEntity
  8
0
  6
Continuous
 62
     7
370
    15
100
AcDbLine
 10
261.6475933513
 20
53.8468474046
 30
0.0
 11
273.6475933513
 21
53.8468474046
 31
0.0
  0
LINE
  5
344
330
1F
100
AcDbEntity
  8
0
  6
Continuous
 62
     7
370
    15
100
AcDbLine
 10
273.6475933513
 20
53.8468474046
 30
0.0
 11
273.6475933513
 21
57.0218474046
 31
0.0
  0
LINE
  5
345
330
1F
100
AcDbEntity
  8
0
  6
Continuous
 62
     7
370
    15
100
AcDbLine
 10
285.6475933513
 20
57.0218474046
 30
0.0
 11
273.6475933513
 21
57.0218474046
 31
0.0
  0
LINE
  5
346
330
1F
100
AcDbEntity
  8
0
  6
Continuous
 62
     7
370
    15
100
AcDbLine
 10
285.6475933513
 20
53.8468474046
 30
0.0
 11
285.6475933513
 21
57.0218474046
 31
0.0
  0
LINE
  5
347
330
1F
100
AcDbEntity
  8
0
  6
Continuous
 62
     7
370
    15
100
AcDbLine
 10
297.6475933513
 20
53.8468474046
 30
0.0
 11
297.6475933513
 21
57.0218474046
 31
0.0
  0
LINE
  5
348
330
1F
100
AcDbEntity
  8
0
  6
Continuous
 62
     7
370
    15
100
AcDbLine
 10
309.6475933513
 20
57.0218474046
 30
0.0
 11
297.6475933513
 21
57.0218474046
 31
0.0
  0
LINE
  5
349
330
1F
100
AcDbEntity
  8
0
  6
Continuous
 62
     7
370
    15
100
AcDbLine
 10
309.6475933513
 20
38.0218474046
 30
0.0
 11
309.6475933513
 21
57.0218474046
 31
0.0
  0
LINE
  5
34A
330
1F
100
AcDbEntity
  8
0
  6
Continuous
 62
     7
370
    15
100
AcDbLine
 10
309.6475933513
 20
38.0218474046
 30
0.0
 11
306.4725933513
 21
38.0218474046
 31
0.0
  0
LINE
  5
34B
330
1F
100
AcDbEntity
  8
0
  6
Continuous
 62
     7
370
    15
100
AcDbLine
 10
306.4725933513
 20
38.0218474046
 30
0.0
 11
306.4725933513
 21
19.0218474046
 31
0.0
  0
LINE
  5
34C
330
1F
100
AcDbEntity
  8
0
  6
Continuous
 62
     7
370
    15
100
AcDbLine
 10
306.4725933513
 20
19.0218474046
 30
0.0
 11
309.6475933513
 21
19.0218474046
 31
0.0
  0
LINE
  5
34D
330
1F
100
AcDbEntity
  8
0
  6
Continuous
 62
     7
370
    15
100
AcDbLine
 10
309.6475933513
 20
0.0218474046
 30
0.0
 11
309.6475933513
 21
19.0218474046
 31
0.0
  0
LINE
  5
34E
330
1F
100
AcDbEntity
  8
0
  6
Continuous
 62
     7
370
    15
100
AcDbLine
 10
306.4725933513
 20
0.0218474046
 30
0.0
 11
309.6475933513
 21
0.0218474046
 31
0.0
  0
LINE
  5
34F
330
1F
100
AcDbEntity
  8
0
  6
Continuous
 62
     7
370
    15
100
AcDbLine
 10
306.4725933513
 20
-18.9781525954
 30
0.0
 11
309.6475933513
 21
-18.9781525954
 31
0.0
  0
LINE
  5
350
330
1F
100
AcDbEntity
  8
0
  6
Continuous
 62
     7
370
    15
100
AcDbLine
 10
309.6475933513
 20
-37.9781525954
 30
0.0
 11
309.6475933513
 21
-18.9781525954
 31
0.0
  0
LINE
  5
351
330
1F
100
AcDbEntity
  8
0
  6
Continuous
 62
     7
370
    15
100
AcDbLine
 10
293.6475933513
 20
-37.9781525954
 30
0.0
 11
309.6475933513
 21
-37.9781525954
 31
0.0
  0
LINE
  5
352
330
1F
100
AcDbEntity
  8
0
  6
Continuous
 62
     7
370
    15
100
AcDbLine
 10
293.6475933513
 20
-34.8031525954
 30
0.0
 11
293.6475933513
 21
-37.9781525954
 31
0.0
  0
LINE
  5
353
330
1F
100
AcDbEntity
  8
0
  6
Continuous
 62
     7
370
    15
100
AcDbLine
 10
277.6475933513
 20
-34.8031525954
 30
0.0
 11
293.6475933513
 21
-34.8031525954
 31
0.0
  0
LINE
  5
354
330
1F
100
AcDbEntity
  8
0
  6
Continuous
 62
     7
370
    15
100
AcDbLine
 10
277.6475933513
 20
-34.8031525954
 30
0.0
 11
277.6475933513
 21
-37.9781525954
 31
0.0
  0
LINE
  5
355
330
1F
100
AcDbEntity
  8
0
  6
Continuous
 62
     7
370
    15
100
AcDbLine
 10
261.6475933513
 20
-37.9781525954
 30
0.0
 11
277.6475933513
 21
-37.9781525954
 31
0.0
  0
LINE
  5
356
330
1F
100
AcDbEntity
  8
0
  6
Continuous
 62
     7
370
    15
100
AcDbLine
 10
261.6475933513
 20
-34.8031525954
 30
0.0
 11
261.6475933513
 21
-37.9781525954
 31
0.0
  0
LINE
  5
357
330
1F
100
AcDbEntity
  8
0
  6
Continuous
 62
     7
370
    15
100
AcDbLine
 10
245.6475933513
 20
-34.8031525954
 30
0.0
 11
261.6475933513
 21
-34.8031525954
 31
0.0
  0
LINE
  5
358
330
1F
100
AcDbEntity
  8
0
  6
Continuous
 62
     7
370
    15
100
AcDbLine
 10
245.6475933513
 20
-37.9781525954
 30
0.0
 11
245.6475933513
 21
-34.8031525954
 31
0.0
  0
LINE
  5
359
330
1F
100
AcDbEntity
  8
0
  6
Continuous
 62
     7
370
    15
100
AcDbLine
 10
229.6475933513
 20
-37.9781525954
 30
0.0
 11
245.6475933513
 21
-37.9781525954
 31
0.0
  0
LINE
  5
35A
330
1F
100
AcDbEntity
  8
0
  6
Continuous
 62
     7
370
    15
100
AcDbLine
 10
229.6475933513
 20
-28.5303204276
 30
0.0
 11
229.6475933513
 21
-37.9781525954
 31
0.0
  0
LINE
  5
35B
330
1F
100
AcDbEntity
  8
0
  6
Continuous
 62
     7
370
    15
100
AcDbLine
 10
232.8225933513
 20
-28.5303204276
 30
0.0
 11
229.6475933513
 21
-28.5303204276
 31
0.0
  0
LINE
  5
35C
330
1F
100
AcDbEntity
  8
0
  6
Continuous
 62
     7
370
    15
100
AcDbLine
 10
232.8225933513
 20
-19.1003204276
 30
0.0
 11
232.8225933513
 21
-28.5303204276
 31
0.0
  0
LINE
  5
35D
330
1F
100
AcDbEntity
  8
0
  6
Continuous
 62
     7
370
    15
100
AcDbLine
 10
232.8225933513
 20
-19.1003204276
 30
0.0
 11
229.6475933513
 21
-19.1003204276
 31
0.0
  0
LINE
  5
35E
330
1F
100
AcDbEntity
  8
0
  6
Continuous
 62
     7
370
    15
100
AcDbLine
 10
232.8225933513
 20
-0.2403204276
 30
0.0
 11
232.8225933513
 21
-9.6703204276
 31
0.0
  0
LINE
  5
35F
330
1F
100
AcDbEntity
  8
0
  6
Continuous
 62
     7
370
    15
100
AcDbLine
 10
229.6475933513
 20
-0.2403204276
 30
0.0
 11
232.8225933513
 21
-0.2403204276
 31
0.0
  0
LINE
  5
360
330
1F
100
AcDbEntity
  8
0
  6
Continuous
 62
     7
370
    15
100
AcDbLine
 10
229.6475933513
 20
9.1896795724
 30
0.0
 11
229.6475933513
 21
-0.2403204276
 31
0.0
  0
LINE
  5
361
330
1F
100
AcDbEntity
  8
0
  6
Continuous
 62
     7
370
    15
100
AcDbLine
 10
233.6386958252
 20
13.1807820463
 30
0.0
 11
229.6475933513
 21
9.1896795724
 31
0.0
  0
LINE
  5
362
330
1F
100
AcDbEntity
  8
0
  6
Continuous
 62
     7
370
    15
100
AcDbLine
 10
235.8837598555
 20
10.9357180161
 30
0.0
 11
233.6386958252
 21
13.1807820463
 31
0.0
  0
LINE
  5
363
330
1F
100
AcDbEntity
  8
0
  6
Continuous
 62
     7
370
    15
100
AcDbLine
 10
232.8225933513
 20
-9.6703204276
 30
0.0
 11
229.6475933513
 21
-9.6703204276
 31
0.0
  0
LINE
  5
364
330
1F
100
AcDbEntity
  8
0
  6
Continuous
 62
     7
370
    15
100
AcDbLine
 10
229.6475933513
 20
-9.6703204276
 30
0.0
 11
229.6475933513
 21
-19.1003204276
 31
0.0
  0
LINE
  5
365
330
1F
100
AcDbEntity
  8
0
  6
Continuous
 62
     7
370
    15
100
AcDbLine
 10
285.6475933513
 20
53.8468474046
 30
0.0
 11
297.6475933513
 21
53.8468474046
 31
0.0
  0
LINE
  5
366
330
1F
100
AcDbEntity
  8
0
  6
Continuous
 62
     7
370
    15
100
AcDbLine
 10
306.4725933513
 20
0.0218474046
 30
0.0
 11
306.4725933513
 21
-18.9781525954
 31
0.0
  0
LINE
  5
367
330
1F
100
AcDbEntity
  8
0
  6
Continuous
 62
     7
370
    15
100
AcDbLine
 10
315.4072330915
 20
136.6569932237
 30
0.0
 11
315.4072330915
 21
163.8069932237
 31
0.0
  0
LINE
  5
368
330
1F
100
AcDbEntity
  8
0
  6
Continuous
 62
     7
370
    15
100
AcDbLine
 10
226.7572330915
 20
136.6569932237
 30
0.0
 11
315.4072330915
 21
136.6569932237
 31
0.0
  0
LINE
  5
369
330
1F
100
AcDbEntity
  8
0
  6
Continuous
 62
     7
370
    15
100
AcDbLine
 10
315.4072330915
 20
163.8069932237
 30
0.0
 11
226.7572330915
 21
163.8069932237
 31
0.0
  0
LINE
  5
36A
330
1F
100
AcDbEntity
  8
0
  6
Continuous
 62
     7
370
    15
100
AcDbLine
 10
226.7572330915
 20
163.8069932237
 30
0.0
 11
226.7572330915
 21
136.6569932237
 31
0.0
  0
LINE
  5
36B
330
1F
100
AcDbEntity
  8
0
  6
Continuous
 62
     7
370
    15
100
AcDbLine
 10
276.0042041008
 20
86.5590866616
 30
0.0
 11
276.0042041008
 21
113.7090866616
 31
0.0
  0
LINE
  5
36C
330
1F
100
AcDbEntity
  8
0
  6
Continuous
 62
     7
370
    15
100
AcDbLine
 10
228.7042041008
 20
113.7090866616
 30
0.0
 11
228.7042041008
 21
86.5590866616
 31
0.0
  0
LINE
  5
36D
330
1F
100
AcDbEntity
  8
0
  6
Continuous
 62
     7
370
    15
100
AcDbLine
 10
276.0042041008
 20
113.7090866616
 30
0.0
 11
228.7042041008
 21
113.7090866616
 31
0.0
  0
LINE
  5
36E
330
1F
100
AcDbEntity
  8
0
  6
Continuous
 62
     7
370
    15
100
AcDbLine
 10
228.7042041008
 20
86.5590866616
 30
0.0
 11
276.0042041008
 21
86.5590866616
 31
0.0
  0
LINE
  5
36F
330
1F
100
AcDbEntity
  8
0
  6
Continuous
 62
     7
370
    15
100
AcDbLine
 10
-35.7016575517
 20
110.0708785382
 30
0.0
 11
-38.8766575517
 21
110.0708785382
 31
0.0
  0
LINE
  5
370
330
1F
100
AcDbEntity
  8
0
  6
Continuous
 62
     7
370
    15
100
AcDbLine
 10
-38.8766575517
 20
113.8958785382
 30
0.0
 11
-38.8766575517
 21
110.0708785382
 31
0.0
  0
LINE
  5
371
330
1F
100
AcDbEntity
  8
0
  6
Continuous
 62
     7
370
    15
100
AcDbLine
 10
-26.8766575517
 20
117.0708785382
 30
0.0
 11
-26.8766575517
 21
113.8958785382
 31
0.0
  0
LINE
  5
372
330
1F
100
AcDbEntity
  8
0
  6
Continuous
 62
     7
370
    15
100
AcDbLine
 10
-14.8766575517
 20
117.0708785382
 30
0.0
 11
-26.8766575517
 21
117.0708785382
 31
0.0
  0
LINE
  5
373
330
1F
100
AcDbEntity
  8
0
  6
Continuous
 62
     7
370
    15
100
AcDbLine
 10
9.1233424483
 20
117.0708785382
 30
0.0
 11
-2.8766575517
 21
117.0708785382
 31
0.0
  0
LINE
  5
374
330
1F
100
AcDbEntity
  8
0
  6
Continuous
 62
     7
370
    15
100
AcDbLine
 10
9.1233424483
 20
113.8958785382
 30
0.0
 11
21.1233424483
 21
113.8958785382
 31
0.0
  0
LINE
  5
375
330
1F
100
AcDbEntity
  8
0
  6
Continuous
 62
     7
370
    15
100
AcDbLine
 10
21.1233424483
 20
110.0708785382
 30
0.0
 11
21.1233424483
 21
113.8958785382
 31
0.0
  0
LINE
  5
376
330
1F
100
AcDbEntity
  8
0
  6
Continuous
 62
     7
370
    15
100
AcDbLine
 10
21.1233424483
 20
110.0708785382
 30
0.0
 11
17.9483424483
 21
110.0708785382
 31
0.0
  0
LINE
  5
377
330
1F
100
AcDbEntity
  8
0
  6
Continuous
 62
     7
370
    15
100
AcDbLine
 10
21.1233424483
 20
96.0708785382
 30
0.0
 11
21.1233424483
 21
103.0708785382
 31
0.0
  0
LINE
  5
378
330
1F
100
AcDbEntity
  8
0
  6
Continuous
 62
     7
370
    15
100
AcDbLine
 10
21.1233424483
 20
96.0708785382
 30
0.0
 11
17.9483424483
 21
96.0708785382
 31
0.0
  0
LINE
  5
379
330
1F
100
AcDbEntity
  8
0
  6
Continuous
 62
     7
370
    15
100
AcDbLine
 10
17.9483424483
 20
89.0708785382
 30
0.0
 11
17.9483424483
 21
96.0708785382
 31
0.0
  0
LINE
  5
37A
330
1F
100
AcDbEntity
  8
0
  6
Continuous
 62
     7
370
    15
100
AcDbLine
 10
21.1233424483
 20
89.0708785382
 30
0.0
 11
17.9483424483
 21
89.0708785382
 31
0.0
  0
LINE
  5
37B
330
1F
100
AcDbEntity
  8
0
  6
Continuous
 62
     7
370
    15
100
AcDbLine
 10
21.1233424483
 20
85.2458785382
 30
0.0
 11
21.1233424483
 21
89.0708785382
 31
0.0
  0
LINE
  5
37C
330
1F
100
AcDbEntity
  8
0
  6
Continuous
 62
     7
370
    15
100
AcDbLine
 10
9.1233424483
 20
82.0708785382
 30
0.0
 11
9.1233424483
 21
85.2458785382
 31
0.0
  0
LINE
  5
37D
330
1F
100
AcDbEntity
  8
0
  6
Continuous
 62
     7
370
    15
100
AcDbLine
 10
-2.8766575517
 20
82.0708785382
 30
0.0
 11
-2.8766575517
 21
85.2458785382
 31
0.0
  0
LINE
  5
37E
330
1F
100
AcDbEntity
  8
0
  6
Continuous
 62
     7
370
    15
100
AcDbLine
 10
-14.8766575517
 20
85.2458785382
 30
0.0
 11
-2.8766575517
 21
85.2458785382
 31
0.0
  0
LINE
  5
37F
330
1F
100
AcDbEntity
  8
0
  6
Continuous
 62
     7
370
    15
100
AcDbLine
 10
-26.8766575517
 20
82.0708785382
 30
0.0
 11
-14.8766575517
 21
82.0708785382
 31
0.0
  0
LINE
  5
380
330
1F
100
AcDbEntity
  8
0
  6
Continuous
 62
     7
370
    15
100
AcDbLine
 10
-26.8766575517
 20
85.2458785382
 30
0.0
 11
-26.8766575517
 21
82.0708785382
 31
0.0
  0
LINE
  5
381
330
1F
100
AcDbEntity
  8
0
  6
Continuous
 62
     7
370
    15
100
AcDbLine
 10
-38.8766575517
 20
85.2458785382
 30
0.0
 11
-26.8766575517
 21
85.2458785382
 31
0.0
  0
LINE
  5
382
330
1F
100
AcDbEntity
  8
0
  6
Continuous
 62
     7
370
    15
100
AcDbLine
 10
-38.8766575517
 20
89.0708785382
 30
0.0
 11
-38.8766575517
 21
85.2458785382
 31
0.0
  0
LINE
  5
383
330
1F
100
AcDbEntity
  8
0
  6
Continuous
 62
     7
370
    15
100
AcDbLine
 10
-35.7016575517
 20
89.0708785382
 30
0.0
 11
-38.8766575517
 21
89.0708785382
 31
0.0
  0
LINE
  5
384
330
1F
100
AcDbEntity
  8
0
  6
Continuous
 62
     7
370
    15
100
AcDbLine
 10
-35.7016575517
 20
89.0708785382
 30
0.0
 11
-35.7016575517
 21
96.0708785382
 31
0.0
  0
LINE
  5
385
330
1F
100
AcDbEntity
  8
0
  6
Continuous
 62
     7
370
    15
100
AcDbLine
 10
-38.8766575517
 20
103.0708785382
 30
0.0
 11
-38.8766575517
 21
96.0708785382
 31
0.0
  0
LINE
  5
386
330
1F
100
AcDbEntity
  8
0
  6
Continuous
 62
     7
370
    15
100
AcDbLine
 10
-35.7016575517
 20
103.0708785382
 30
0.0
 11
-35.7016575517
 21
110.0708785382
 31
0.0
  0
LINE
  5
387
330
1F
100
AcDbEntity
  8
0
  6
Continuous
 62
     7
370
    15
100
AcDbLine
 10
21.1233424483
 20
103.0708785382
 30
0.0
 11
17.9483424483
 21
103.0708785382
 31
0.0
  0
LINE
  5
388
330
1F
100
AcDbEntity
  8
0
  6
Continuous
 62
     7
370
    15
100
AcDbLine
 10
-38.8766575517
 20
113.8958785382
 30
0.0
 11
-26.8766575517
 21
113.8958785382
 31
0.0
  0
LINE
  5
389
330
1F
100
AcDbEntity
  8
0
  6
Continuous
 62
     7
370
    15
100
AcDbLine
 10
-2.8766575517
 20
113.8958785382
 30
0.0
 11
-2.8766575517
 21
117.0708785382
 31
0.0
  0
LINE
  5
38A
330
1F
100
AcDbEntity
  8
0
  6
Continuous
 62
     7
370
    15
100
AcDbLine
 10
-14.8766575517
 20
113.8958785382
 30
0.0
 11
-14.8766575517
 21
117.0708785382
 31
0.0
  0
LINE
  5
38B
330
1F
100
AcDbEntity
  8
0
  6
Continuous
 62
     7
370
    15
100
AcDbLine
 10
9.1233424483
 20
85.2458785382
 30
0.0
 11
21.1233424483
 21
85.2458785382
 31
0.0
  0
LINE
  5
38C
330
1F
100
AcDbEntity
  8
0
  6
Continuous
 62
     7
370
    15
100
AcDbLine
 10
-2.8766575517
 20
82.0708785382
 30
0.0
 11
9.1233424483
 21
82.0708785382
 31
0.0
  0
LINE
  5
38D
330
1F
100
AcDbEntity
  8
0
  6
Continuous
 62
     7
370
    15
100
AcDbLine
 10
17.9483424483
 20
103.0708785382
 30
0.0
 11
17.9483424483
 21
110.0708785382
 31
0.0
  0
LINE
  5
38E
330
1F
100
AcDbEntity
  8
0
  6
Continuous
 62
     7
370
    15
100
AcDbLine
 10
9.1233424483
 20
113.8958785382
 30
0.0
 11
9.1233424483
 21
117.0708785382
 31
0.0
  0
LINE
  5
38F
330
1F
100
AcDbEntity
  8
0
  6
Continuous
 62
     7
370
    15
100
AcDbLine
 10
-35.7016575517
 20
103.0708785382
 30
0.0
 11
-38.8766575517
 21
103.0708785382
 31
0.0
  0
LINE
  5
390
330
1F
100
AcDbEntity
  8
0
  6
Continuous
 62
     7
370
    15
100
AcDbLine
 10
-35.7016575517
 20
96.0708785382
 30
0.0
 11
-38.8766575517
 21
96.0708785382
 31
0.0
  0
LINE
  5
391
330
1F
100
AcDbEntity
  8
0
  6
Continuous
 62
     7
370
    15
100
AcDbLine
 10
-14.8766575517
 20
82.0708785382
 30
0.0
 11
-14.8766575517
 21
85.2458785382
 31
0.0
  0
LINE
  5
392
330
1F
100
AcDbEntity
  8
0
  6
Continuous
 62
     7
370
    15
100
AcDbLine
 10
-14.8766575517
 20
113.8958785382
 30
0.0
 11
-2.8766575517
 21
113.8958785382
 31
0.0
  0
MTEXT
  5
394
330
1F
100
AcDbEntity
  8
0
  6
Continuous
 62
     7
100
AcDbMText
 10
-110.5064981381
 20
-107.9481040222
 30
0.0
 40
4.83362
 41
0.0
 71
     1
 72
     1
  1
SOLIDWORKS Educational Edition.
  7
SLDTEXTSTYLE0
 73
     1
 44
1.0
  0
MTEXT
  5
395
330
1F
100
AcDbEntity
  8
0
  6
Continuous
 62
     7
100
AcDbMText
 10
-110.5064981381
 20
-115.1985340222
 30
0.0
 40
4.83362
 41
0.0
 71
     1
 72
     1
  1
For Instructional Use Only.
  7
SLDTEXTSTYLE0
 73
     1
 44
1.0
  0
ENDSEC
  0
SECTION
  2
OBJECTS
  0
DICTIONARY
  5
C
330
0
100
AcDbDictionary
281
     1
  3
ACAD_GROUP
350
D
  3
ACAD_LAYOUT
350
1A
  3
ACAD_MLINESTYLE
350
17
  3
ACAD_PLOTSETTINGS
350
19
  3
ACAD_PLOTSTYLENAME
350
E
  3
ACAD_SCALELIST
350
47
  0
DICTIONARY
  5
D
102
{ACAD_REACTORS
330
C
102
}
330
C
100
AcDbDictionary
281
     1
  0
DICTIONARY
  5
1A
102
{ACAD_REACTORS
330
C
102
}
330
C
100
AcDbDictionary
281
     1
  3
Layout1
350
1E
  3
Layout2
350
26
  3
Model
350
22
  0
DICTIONARY
  5
17
102
{ACAD_REACTORS
330
C
102
}
330
C
100
AcDbDictionary
281
     1
  3
Standard
350
18
  0
DICTIONARY
  5
19
102
{ACAD_REACTORS
330
C
102
}
330
C
100
AcDbDictionary
281
     1
  0
ACDBDICTIONARYWDFLT
  5
E
102
{ACAD_REACTORS
330
C
102
}
330
C
100
AcDbDictionary
281
     1
  3
Normal
350
F
100
AcDbDictionaryWithDefault
340
F
  0
DICTIONARY
  5
47
102
{ACAD_REACTORS
330
C
102
}
330
C
100
AcDbDictionary
281
     1
  3
A0
350
48
  3
A1
350
49
  3
A2
350
4A
  3
A3
350
4B
  3
A4
350
4C
  3
A5
350
4D
  3
A6
350
4E
  3
A7
350
4F
  3
A8
350
50
  3
A9
350
51
  3
B0
350
52
  3
B1
350
53
  3
B2
350
54
  3
B3
350
55
  3
B4
350
56
  3
B5
350
57
  3
B6
350
58
  3
B7
350
59
  3
B8
350
5A
  3
B9
350
5B
  3
C0
350
5C
  3
C1
350
5D
  3
C2
350
5E
  3
C3
350
5F
  3
C4
350
60
  3
C5
350
61
  3
C6
350
62
  3
C7
350
63
  3
C8
350
64
  3
C9
350
65
  3
D0
350
66
  3
D1
350
67
  3
D2
350
68
  0
LAYOUT
  5
1E
102
{ACAD_REACTORS
330
1A
102
}
330
1A
100
AcDbPlotSettings
  1

  2
none_device
  4

  6

 40
0.0
 41
0.0
 42
0.0
 43
0.0
 44
0.0
 45
0.0
 46
0.0
 47
0.0
 48
0.0
 49
0.0
140
0.0
141
0.0
142
1.0
143
1.0
 70
   688
 72
     1
 73
     0
 74
     5
  7

 75
    16
147
1.0
148
0.0
149
0.0
100
AcDbLayout
  1
Layout1
 70
     1
 71
     1
 10
0.0
 20
0.0
 11
420.0
 21
297.0
 12
0.0
 22
0.0
 32
0.0
 14
1.0000000000E+20
 24
1.0000000000E+20
 34
1.0000000000E+20
 15
-1.0000000000E+20
 25
-1.0000000000E+20
 35
-1.0000000000E+20
146
0.0
 13
0.0
 23
0.0
 33
0.0
 16
1.0
 26
0.0
 36
0.0
 17
0.0
 27
1.0
 37
0.0
 76
     0
330
1B
  0
LAYOUT
  5
26
102
{ACAD_REACTORS
330
1A
102
}
330
1A
100
AcDbPlotSettings
  1

  2
none_device
  4

  6

 40
0.0
 41
0.0
 42
0.0
 43
0.0
 44
0.0
 45
0.0
 46
0.0
 47
0.0
 48
0.0
 49
0.0
140
0.0
141
0.0
142
1.0
143
1.0
 70
   688
 72
     1
 73
     0
 74
     5
  7

 75
    16
147
1.0
148
0.0
149
0.0
100
AcDbLayout
  1
Layout2
 70
     1
 71
     2
 10
0.0
 20
0.0
 11
0.0
 21
0.0
 12
0.0
 22
0.0
 32
0.0
 14
0.0
 24
0.0
 34
0.0
 15
0.0
 25
0.0
 35
0.0
146
0.0
 13
0.0
 23
0.0
 33
0.0
 16
1.0
 26
0.0
 36
0.0
 17
0.0
 27
1.0
 37
0.0
 76
     0
330
23
  0
LAYOUT
  5
22
102
{ACAD_REACTORS
330
1A
102
}
330
1A
100
AcDbPlotSettings
  1

  2
none_device
  4
ANSI_A_(11.00_x_8.50_Inches)
  6

 40
6.35
 41
19.05
 42
6.35000508
 43
19.05000254
 44
279.4
 45
215.9
 46
56.5800764181
 47
72.749272456
 48
0.0
 49
0.0
140
0.0
141
0.0
142
0.0219223503
143
1.0
 70
  1696
 72
     0
 73
     0
 74
     0
  7

 75
     0
147
0.0179189148
148
-1300.4909072572
149
0.0
100
AcDbLayout
  1
Model
 70
     1
 71
     0
 10
0.0
 20
0.0
 11
420.0
 21
297.0
 12
0.0
 22
0.0
 32
0.0
 14
-110.5064981381
 24
-106.9285376305
 34
0.0
 15
386.2468082391
 25
164.938318163
 35
0.0
146
0.0
 13
0.0
 23
0.0
 33
0.0
 16
1.0
 26
0.0
 36
0.0
 17
0.0
 27
1.0
 37
0.0
 76
     0
330
1F
331
29
  0
MLINESTYLE
  5
18
102
{ACAD_REACTORS
330
17
102
}
330
17
100
AcDbMlineStyle
  2
Standard
 70
     0
  3

 62
   256
 51
90.0
 52
90.0
 71
     2
 49
0.5
 62
   256
  6
BYLAYER
 49
-0.5
 62
   256
  6
BYLAYER
  0
ACDBPLACEHOLDER
  5
F
102
{ACAD_REACTORS
330
E
102
}
330
E
  0
SCALE
  5
48
102
{ACAD_REACTORS
330
47
102
}
330
47
100
AcDbScale
 70
     0
300
1:1
140
1.0
141
1.0
290
     1
  0
SCALE
  5
49
102
{ACAD_REACTORS
330
47
102
}
330
47
100
AcDbScale
 70
     0
300
1:2
140
1.0
141
2.0
290
     0
  0
SCALE
  5
4A
102
{ACAD_REACTORS
330
47
102
}
330
47
100
AcDbScale
 70
     0
300
1:4
140
1.0
141
4.0
290
     0
  0
SCALE
  5
4B
102
{ACAD_REACTORS
330
47
102
}
330
47
100
AcDbScale
 70
     0
300
1:5
140
1.0
141
5.0
290
     0
  0
SCALE
  5
4C
102
{ACAD_REACTORS
330
47
102
}
330
47
100
AcDbScale
 70
     0
300
1:8
140
1.0
141
8.0
290
     0
  0
SCALE
  5
4D
102
{ACAD_REACTORS
330
47
102
}
330
47
100
AcDbScale
 70
     0
300
1:10
140
1.0
141
10.0
290
     0
  0
SCALE
  5
4E
102
{ACAD_REACTORS
330
47
102
}
330
47
100
AcDbScale
 70
     0
300
1:16
140
1.0
141
16.0
290
     0
  0
SCALE
  5
4F
102
{ACAD_REACTORS
330
47
102
}
330
47
100
AcDbScale
 70
     0
300
1:20
140
1.0
141
20.0
290
     0
  0
SCALE
  5
50
102
{ACAD_REACTORS
330
47
102
}
330
47
100
AcDbScale
 70
     0
300
1:30
140
1.0
141
30.0
290
     0
  0
SCALE
  5
51
102
{ACAD_REACTORS
330
47
102
}
330
47
100
AcDbScale
 70
     0
300
1:40
140
1.0
141
40.0
290
     0
  0
SCALE
  5
52
102
{ACAD_REACTORS
330
47
102
}
330
47
100
AcDbScale
 70
     0
300
1:50
140
1.0
141
50.0
290
     0
  0
SCALE
  5
53
102
{ACAD_REACTORS
330
47
102
}
330
47
100
AcDbScale
 70
     0
300
1:100
140
1.0
141
100.0
290
     0
  0
SCALE
  5
54
102
{ACAD_REACTORS
330
47
102
}
330
47
100
AcDbScale
 70
     0
300
2:1
140
2.0
141
1.0
290
     0
  0
SCALE
  5
55
102
{ACAD_REACTORS
330
47
102
}
330
47
100
AcDbScale
 70
     0
300
4:1
140
4.0
141
1.0
290
     0
  0
SCALE
  5
56
102
{ACAD_REACTORS
330
47
102
}
330
47
100
AcDbScale
 70
     0
300
8:1
140
8.0
141
1.0
290
     0
  0
SCALE
  5
57
102
{ACAD_REACTORS
330
47
102
}
330
47
100
AcDbScale
 70
     0
300
10:1
140
10.0
141
1.0
290
     0
  0
SCALE
  5
58
102
{ACAD_REACTORS
330
47
102
}
330
47
100
AcDbScale
 70
     0
300
100:1
140
100.0
141
1.0
290
     0
  0
SCALE
  5
59
102
{ACAD_REACTORS
330
47
102
}
330
47
100
AcDbScale
 70
     0
300
1/128" = 1'-0"
140
0.0078125
141
12.0
290
     0
  0
SCALE
  5
5A
102
{ACAD_REACTORS
330
47
102
}
330
47
100
AcDbScale
 70
     0
300
1/64" = 1'-0"
140
0.015625
141
12.0
290
     0
  0
SCALE
  5
5B
102
{ACAD_REACTORS
330
47
102
}
330
47
100
AcDbScale
 70
     0
300
1/32" = 1'-0"
140
0.03125
141
12.0
290
     0
  0
SCALE
  5
5C
102
{ACAD_REACTORS
330
47
102
}
330
47
100
AcDbScale
 70
     0
300
1/16" = 1'-0"
140
0.0625
141
12.0
290
     0
  0
SCALE
  5
5D
102
{ACAD_REACTORS
330
47
102
}
330
47
100
AcDbScale
 70
     0
300
3/32" = 1'-0"
140
0.09375
141
12.0
290
     0
  0
SCALE
  5
5E
102
{ACAD_REACTORS
330
47
102
}
330
47
100
AcDbScale
 70
     0
300
1/8" = 1'-0"
140
0.125
141
12.0
290
     0
  0
SCALE
  5
5F
102
{ACAD_REACTORS
330
47
102
}
330
47
100
AcDbScale
 70
     0
300
3/16" = 1'-0"
140
0.1875
141
12.0
290
     0
  0
SCALE
  5
60
102
{ACAD_REACTORS
330
47
102
}
330
47
100
AcDbScale
 70
     0
300
1/4" = 1'-0"
140
0.25
141
12.0
290
     0
  0
SCALE
  5
61
102
{ACAD_REACTORS
330
47
102
}
330
47
100
AcDbScale
 70
     0
300
3/8" = 1'-0"
140
0.375
141
12.0
290
     0
  0
SCALE
  5
62
102
{ACAD_REACTORS
330
47
102
}
330
47
100
AcDbScale
 70
     0
300
1/2" = 1'-0"
140
0.5
141
12.0
290
     0
  0
SCALE
  5
63
102
{ACAD_REACTORS
330
47
102
}
330
47
100
AcDbScale
 70
     0
300
3/4" = 1'-0"
140
0.75
141
12.0
290
     0
  0
SCALE
  5
64
102
{ACAD_REACTORS
330
47
102
}
330
47
100
AcDbScale
 70
     0
300
1" = 1'-0"
140
1.0
141
12.0
290
     0
  0
SCALE
  5
65
102
{ACAD_REACTORS
330
47
102
}
330
47
100
AcDbScale
 70
     0
300
1-1/2" = 1'-0"
140
1.5
141
12.0
290
     0
  0
SCALE
  5
66
102
{ACAD_REACTORS
330
47
102
}
330
47
100
AcDbScale
 70
     0
300
3" = 1'-0"
140
3.0
141
12.0
290
     0
  0
SCALE
  5
67
102
{ACAD_REACTORS
330
47
102
}
330
47
100
AcDbScale
 70
     0
300
6" = 1'-0"
140
6.0
141
12.0
290
     0
  0
SCALE
  5
68
102
{ACAD_REACTORS
330
47
102
}
330
47
100
AcDbScale
 70
     0
300
1'-0" = 1'-0"
140
12.0
141
12.0
290
     0
  0
ENDSEC
  0
EOF
